<svg xmlns="http://www.w3.org/2000/svg" xmlns:xlink="http://www.w3.org/1999/xlink" width="500" zoomAndPan="magnify" viewBox="0 0 375 299.999988" height="400" preserveAspectRatio="xMidYMid meet" version="1.0"><defs><clipPath id="id1"><path d="M 328 101 L 333.351562 101 L 333.351562 224.304688 L 328 224.304688 Z M 328 101 " clip-rule="nonzero"/></clipPath><clipPath id="id2"><path d="M 196.851562 86 L 202 86 L 202 224.304688 L 196.851562 224.304688 Z M 196.851562 86 " clip-rule="nonzero"/></clipPath><clipPath id="id3"><path d="M 41.628906 75.804688 L 47 75.804688 L 47 224.304688 L 41.628906 224.304688 Z M 41.628906 75.804688 " clip-rule="nonzero"/></clipPath><clipPath id="id4"><path d="M 60 149 L 66 149 L 66 224.304688 L 60 224.304688 Z M 60 149 " clip-rule="nonzero"/></clipPath><clipPath id="id5"><path d="M 132 213 L 138 213 L 138 224.304688 L 132 224.304688 Z M 132 213 " clip-rule="nonzero"/></clipPath><clipPath id="id6"><path d="M 151 75.804688 L 156.378906 75.804688 L 156.378906 224.304688 L 151 224.304688 Z M 151 75.804688 " clip-rule="nonzero"/></clipPath><clipPath id="id7"><path d="M 132 75.804688 L 138 75.804688 L 138 137 L 132 137 Z M 132 75.804688 " clip-rule="nonzero"/></clipPath><clipPath id="id8"><path d="M 60 75.804688 L 66 75.804688 L 66 137 L 60 137 Z M 60 75.804688 " clip-rule="nonzero"/></clipPath></defs><path fill="rgb(32.159424%, 44.309998%, 100%)" d="M 308.289062 100.660156 C 307.058594 100.078125 305.601562 100.601562 305.019531 101.824219 L 267.964844 180.03125 C 267.382812 181.257812 267.90625 182.722656 269.128906 183.304688 C 269.46875 183.460938 269.828125 183.539062 270.179688 183.539062 C 271.101562 183.539062 271.976562 183.023438 272.398438 182.136719 L 309.453125 103.929688 C 310.035156 102.707031 309.511719 101.238281 308.289062 100.660156 " fill-opacity="1" fill-rule="nonzero"/><path fill="rgb(32.159424%, 44.309998%, 100%)" d="M 311.265625 122.347656 C 309.910156 122.347656 308.8125 123.445312 308.8125 124.800781 L 308.8125 207.601562 C 308.8125 208.960938 309.910156 210.058594 311.265625 210.058594 C 312.625 210.058594 313.722656 208.960938 313.722656 207.601562 L 313.722656 124.800781 C 313.722656 123.445312 312.625 122.347656 311.265625 122.347656 " fill-opacity="1" fill-rule="nonzero"/><g clip-path="url(#id1)"><path fill="rgb(32.159424%, 44.309998%, 100%)" d="M 330.917969 101.988281 C 329.5625 101.988281 328.464844 103.089844 328.464844 104.445312 L 328.464844 221.808594 C 328.464844 223.167969 329.5625 224.265625 330.917969 224.265625 C 332.273438 224.265625 333.375 223.167969 333.375 221.808594 L 333.375 104.445312 C 333.375 103.089844 332.273438 101.988281 330.917969 101.988281 " fill-opacity="1" fill-rule="nonzero"/></g><path fill="rgb(32.159424%, 44.309998%, 100%)" d="M 298.238281 85.546875 C 298.574219 85.703125 298.921875 85.773438 299.269531 85.773438 C 300.195312 85.773438 301.082031 85.246094 301.496094 84.351562 L 303.660156 79.683594 C 304.230469 78.453125 303.695312 76.992188 302.464844 76.421875 C 301.234375 75.847656 299.773438 76.386719 299.207031 77.613281 L 297.042969 82.28125 C 296.472656 83.515625 297.007812 84.972656 298.238281 85.546875 " fill-opacity="1" fill-rule="nonzero"/><path fill="rgb(32.159424%, 44.309998%, 100%)" d="M 293.839844 95.050781 C 292.617188 94.472656 291.152344 95.015625 290.582031 96.246094 L 265.480469 150.488281 L 231.984375 80.480469 C 231.394531 79.257812 229.929688 78.738281 228.710938 79.324219 C 227.488281 79.914062 226.96875 81.378906 227.554688 82.601562 L 265.554688 162.015625 L 295.035156 98.308594 C 295.605469 97.078125 295.070312 95.621094 293.839844 95.050781 " fill-opacity="1" fill-rule="nonzero"/><g clip-path="url(#id2)"><path fill="rgb(32.159424%, 44.309998%, 100%)" d="M 199.324219 86.636719 C 197.964844 86.636719 196.867188 87.734375 196.867188 89.09375 L 196.867188 221.808594 C 196.867188 223.167969 197.964844 224.265625 199.324219 224.265625 C 200.679688 224.265625 201.777344 223.167969 201.777344 221.808594 L 201.777344 89.09375 C 201.777344 87.734375 200.679688 86.636719 199.324219 86.636719 " fill-opacity="1" fill-rule="nonzero"/></g><path fill="rgb(32.159424%, 44.309998%, 100%)" d="M 217.683594 101.679688 C 216.324219 101.679688 215.226562 102.777344 215.226562 104.136719 L 215.226562 208.316406 C 215.226562 209.671875 216.324219 210.773438 217.683594 210.773438 C 219.039062 210.773438 220.136719 209.671875 220.136719 208.316406 L 220.136719 104.136719 C 220.136719 102.777344 219.039062 101.679688 217.683594 101.679688 " fill-opacity="1" fill-rule="nonzero"/><path fill="rgb(32.159424%, 44.309998%, 100%)" d="M 228.074219 110.703125 C 227.496094 109.476562 226.039062 108.941406 224.8125 109.527344 C 223.585938 110.105469 223.058594 111.570312 223.636719 112.796875 L 248.792969 166.273438 C 249.214844 167.164062 250.09375 167.6875 251.015625 167.6875 C 251.367188 167.6875 251.722656 167.609375 252.058594 167.449219 C 253.285156 166.875 253.8125 165.40625 253.234375 164.183594 L 228.074219 110.703125 " fill-opacity="1" fill-rule="nonzero"/><g clip-path="url(#id3)"><path fill="rgb(32.159424%, 44.309998%, 100%)" d="M 44.027344 75.914062 C 42.710938 75.914062 41.640625 76.980469 41.640625 78.296875 L 41.640625 221.804688 C 41.640625 223.121094 42.710938 224.1875 44.027344 224.1875 C 45.347656 224.1875 46.417969 223.121094 46.417969 221.804688 L 46.417969 78.296875 C 46.417969 76.980469 45.347656 75.914062 44.027344 75.914062 " fill-opacity="1" fill-rule="nonzero"/></g><g clip-path="url(#id4)"><path fill="rgb(32.159424%, 44.309998%, 100%)" d="M 63.148438 149.160156 C 61.828125 149.160156 60.761719 150.226562 60.761719 151.542969 L 60.761719 221.804688 C 60.761719 223.121094 61.828125 224.1875 63.148438 224.1875 C 64.46875 224.1875 65.535156 223.121094 65.535156 221.804688 L 65.535156 151.542969 C 65.535156 150.226562 64.46875 149.160156 63.148438 149.160156 " fill-opacity="1" fill-rule="nonzero"/></g><path fill="rgb(32.159424%, 44.309998%, 100%)" d="M 134.890625 141.214844 L 63.148438 141.214844 C 61.828125 141.214844 60.761719 142.277344 60.761719 143.597656 C 60.761719 144.914062 61.828125 145.980469 63.148438 145.980469 L 134.890625 145.980469 C 136.207031 145.980469 137.277344 144.914062 137.277344 143.597656 C 137.277344 142.277344 136.207031 141.214844 134.890625 141.214844 " fill-opacity="1" fill-rule="nonzero"/><path fill="rgb(32.159424%, 44.309998%, 100%)" d="M 134.890625 149.160156 C 133.570312 149.160156 132.5 150.226562 132.5 151.542969 L 132.5 200.652344 C 132.5 201.96875 133.570312 203.035156 134.890625 203.035156 C 136.207031 203.035156 137.277344 201.96875 137.277344 200.652344 L 137.277344 151.542969 C 137.277344 150.226562 136.207031 149.160156 134.890625 149.160156 " fill-opacity="1" fill-rule="nonzero"/><g clip-path="url(#id5)"><path fill="rgb(32.159424%, 44.309998%, 100%)" d="M 134.890625 213.609375 C 133.570312 213.609375 132.5 214.679688 132.5 215.996094 L 132.5 221.804688 C 132.5 223.121094 133.570312 224.1875 134.890625 224.1875 C 136.207031 224.1875 137.277344 223.121094 137.277344 221.804688 L 137.277344 215.996094 C 137.277344 214.679688 136.207031 213.609375 134.890625 213.609375 " fill-opacity="1" fill-rule="nonzero"/></g><g clip-path="url(#id6)"><path fill="rgb(32.159424%, 44.309998%, 100%)" d="M 154.007812 75.914062 C 152.6875 75.914062 151.621094 76.980469 151.621094 78.296875 L 151.621094 221.804688 C 151.621094 223.121094 152.6875 224.1875 154.007812 224.1875 C 155.328125 224.1875 156.394531 223.121094 156.394531 221.804688 L 156.394531 78.296875 C 156.394531 76.980469 155.328125 75.914062 154.007812 75.914062 " fill-opacity="1" fill-rule="nonzero"/></g><g clip-path="url(#id7)"><path fill="rgb(32.159424%, 44.309998%, 100%)" d="M 134.890625 75.914062 C 133.570312 75.914062 132.5 76.980469 132.5 78.296875 L 132.5 134.582031 C 132.5 135.902344 133.570312 136.964844 134.890625 136.964844 C 136.207031 136.964844 137.277344 135.902344 137.277344 134.582031 L 137.277344 78.296875 C 137.277344 76.980469 136.207031 75.914062 134.890625 75.914062 " fill-opacity="1" fill-rule="nonzero"/></g><g clip-path="url(#id8)"><path fill="rgb(32.159424%, 44.309998%, 100%)" d="M 63.148438 136.964844 C 64.46875 136.964844 65.535156 135.902344 65.535156 134.582031 L 65.535156 78.296875 C 65.535156 76.980469 64.46875 75.914062 63.148438 75.914062 C 61.828125 75.914062 60.761719 76.980469 60.761719 78.296875 L 60.761719 134.582031 C 60.761719 135.902344 61.828125 136.964844 63.148438 136.964844 " fill-opacity="1" fill-rule="nonzero"/></g></svg>