<svg xmlns="http://www.w3.org/2000/svg" xmlns:xlink="http://www.w3.org/1999/xlink" width="1000" zoomAndPan="magnify" viewBox="0 0 562.5 225" height="500" preserveAspectRatio="xMidYMid meet" version="1.0"><defs><g/></defs><g fill="#bdb1a5" fill-opacity="1"><g transform="translate(145.58989, 158.672228)"><g><path d="M 98.609375 -54.21875 C 98.503906 -53.945312 98.398438 -53.675781 98.296875 -53.40625 C 97.253906 -50.675781 96.125 -47.992188 94.90625 -45.359375 C 88.644531 -32.347656 81.921875 -19.757812 74.734375 -7.59375 C 72.390625 -3.664062 70 0.1875 67.5625 3.96875 C 65.125 7.757812 62.664062 11.535156 60.1875 15.296875 C 59.601562 16.179688 59.015625 17.066406 58.421875 17.953125 C 58.390625 18.023438 58.359375 18.078125 58.328125 18.109375 C 58.191406 18.378906 58.035156 18.601562 57.859375 18.78125 C 57.679688 18.957031 57.441406 19.046875 57.140625 19.046875 C 57.003906 19.046875 56.859375 19.007812 56.703125 18.9375 C 56.554688 18.875 56.4375 18.789062 56.34375 18.6875 C 56.269531 18.601562 56.21875 18.457031 56.1875 18.25 C 56.164062 18.050781 56.179688 17.890625 56.234375 17.765625 C 56.640625 16.898438 57.09375 16.078125 57.59375 15.296875 C 58.695312 13.484375 59.8125 11.671875 60.9375 9.859375 C 63.050781 6.492188 65.125 3.117188 67.15625 -0.265625 C 71.675781 -7.816406 75.992188 -15.523438 80.109375 -23.390625 C 84.234375 -31.253906 88.257812 -39.203125 92.1875 -47.234375 C 93.757812 -50.328125 95.054688 -53.644531 96.078125 -57.1875 C 96.285156 -57.800781 96.445312 -58.4375 96.5625 -59.09375 C 96.675781 -59.75 96.734375 -60.429688 96.734375 -61.140625 C 96.617188 -62.648438 95.972656 -63.304688 94.796875 -63.109375 C 93.742188 -62.898438 92.753906 -62.570312 91.828125 -62.125 C 89.628906 -61.0625 87.457031 -59.882812 85.3125 -58.59375 C 73.8125 -51.613281 63.332031 -42.953125 53.875 -32.609375 C 53.738281 -32.441406 53.59375 -32.273438 53.4375 -32.109375 C 50.164062 -28.554688 46.921875 -24.972656 43.703125 -21.359375 C 40.492188 -17.753906 37.378906 -14.039062 34.359375 -10.21875 C 33.722656 -9.425781 33.0625 -8.6875 32.375 -8 C 31.644531 -7.238281 30.769531 -6.9375 29.75 -7.09375 C 29.3125 -7.15625 28.953125 -7.367188 28.671875 -7.734375 C 28.398438 -8.109375 28.296875 -8.539062 28.359375 -9.03125 C 28.566406 -10.375 28.863281 -11.675781 29.25 -12.9375 C 30.46875 -16.925781 31.757812 -20.859375 33.125 -24.734375 C 33.3125 -25.335938 33.488281 -25.914062 33.65625 -26.46875 C 34.019531 -27.914062 34.53125 -29.253906 35.1875 -30.484375 C 35.1875 -30.515625 35.171875 -30.53125 35.140625 -30.53125 C 34.972656 -30.625 34.804688 -30.695312 34.640625 -30.75 C 34.484375 -30.800781 34.320312 -30.742188 34.15625 -30.578125 C 33.550781 -29.921875 32.972656 -29.234375 32.421875 -28.515625 C 27.867188 -22.335938 23.359375 -16.109375 18.890625 -9.828125 C 14.429688 -3.554688 10.070312 2.816406 5.8125 9.296875 C 5.457031 9.929688 5.054688 10.445312 4.609375 10.84375 C 4.171875 11.238281 3.585938 11.367188 2.859375 11.234375 C 2.523438 11.140625 2.265625 10.9375 2.078125 10.625 C 1.898438 10.3125 1.867188 10.003906 1.984375 9.703125 C 2.367188 8.816406 2.796875 7.976562 3.265625 7.1875 C 4.578125 4.914062 5.878906 2.640625 7.171875 0.359375 C 9.753906 -4.148438 12.320312 -8.679688 14.875 -13.234375 C 18.832031 -20.210938 22.359375 -27.5625 25.453125 -35.28125 C 26.671875 -38.238281 27.660156 -41.351562 28.421875 -44.625 C 28.835938 -46.363281 29.019531 -48.175781 28.96875 -50.0625 C 28.769531 -53.082031 27.765625 -55.242188 25.953125 -56.546875 C 24.140625 -57.859375 21.753906 -58.476562 18.796875 -58.40625 C 15.847656 -58.34375 12.578125 -57.738281 8.984375 -56.59375 C 5.390625 -55.457031 1.707031 -53.953125 -2.0625 -52.078125 C -5.84375 -50.210938 -9.484375 -48.144531 -12.984375 -45.875 C -16.492188 -43.613281 -19.613281 -41.320312 -22.34375 -39 C -25.082031 -36.675781 -27.210938 -34.5 -28.734375 -32.46875 C -30.335938 -30.21875 -31.703125 -27.742188 -32.828125 -25.046875 C -33.398438 -23.765625 -33.726562 -22.363281 -33.8125 -20.84375 C -33.84375 -20.550781 -33.992188 -20.328125 -34.265625 -20.171875 C -34.535156 -20.023438 -34.832031 -19.984375 -35.15625 -20.046875 C -35.6875 -20.210938 -36.019531 -20.625 -36.15625 -21.28125 C -36.238281 -22.144531 -36.171875 -22.9375 -35.953125 -23.65625 C -35.453125 -25.46875 -34.789062 -27.1875 -33.96875 -28.8125 C -32.457031 -31.632812 -30.160156 -34.519531 -27.078125 -37.46875 C -23.992188 -40.425781 -20.398438 -43.253906 -16.296875 -45.953125 C -12.191406 -48.660156 -7.90625 -51.070312 -3.4375 -53.1875 C 1.03125 -55.3125 5.394531 -56.960938 9.65625 -58.140625 C 13.925781 -59.316406 17.769531 -59.84375 21.1875 -59.71875 C 24.613281 -59.601562 27.316406 -58.664062 29.296875 -56.90625 C 31.273438 -55.144531 32.234375 -52.367188 32.171875 -48.578125 C 32.066406 -46.140625 31.6875 -43.816406 31.03125 -41.609375 C 30.070312 -38.378906 28.96875 -35.253906 27.71875 -32.234375 C 26.46875 -29.210938 25.140625 -26.257812 23.734375 -23.375 C 23.296875 -22.46875 23.195312 -22.023438 23.4375 -22.046875 C 23.6875 -22.078125 24.0625 -22.421875 24.5625 -23.078125 C 26.34375 -25.441406 28.125 -27.773438 29.90625 -30.078125 C 31.113281 -31.628906 32.347656 -33.144531 33.609375 -34.625 C 33.773438 -34.832031 33.941406 -35.035156 34.109375 -35.234375 C 34.828125 -36.117188 35.695312 -36.707031 36.71875 -37 C 37.476562 -37.164062 38.117188 -36.992188 38.640625 -36.484375 C 39.171875 -35.972656 39.351562 -35.210938 39.1875 -34.203125 C 39.15625 -34.097656 39.125 -33.988281 39.09375 -33.875 C 38.820312 -32.5625 38.507812 -31.285156 38.15625 -30.046875 C 37.195312 -27.003906 36.207031 -23.984375 35.1875 -20.984375 C 34.6875 -19.441406 34.191406 -17.878906 33.703125 -16.296875 C 33.597656 -16.066406 33.445312 -15.648438 33.25 -15.046875 C 33.0625 -14.523438 32.875 -14.007812 32.6875 -13.5 C 32.507812 -12.988281 32.367188 -12.597656 32.265625 -12.328125 C 32.398438 -12.441406 33.617188 -13.816406 35.921875 -16.453125 C 39.054688 -20.046875 42.765625 -24.253906 47.046875 -29.078125 C 51.328125 -33.898438 54.691406 -37.582031 57.140625 -40.125 C 61.648438 -44.664062 66.398438 -48.796875 71.390625 -52.515625 C 76.390625 -56.242188 81.570312 -59.613281 86.9375 -62.625 C 88.25 -63.3125 89.601562 -63.929688 91 -64.484375 C 91.300781 -64.585938 91.59375 -64.707031 91.875 -64.84375 C 93.1875 -65.363281 94.585938 -65.554688 96.078125 -65.421875 C 98.921875 -65.160156 100.222656 -63.363281 99.984375 -60.03125 C 99.816406 -57.96875 99.359375 -56.03125 98.609375 -54.21875 Z M 35.03125 -30.671875 C 35.101562 -30.609375 35.15625 -30.5625 35.1875 -30.53125 C 35.1875 -30.53125 35.1875 -30.515625 35.1875 -30.484375 C 35.21875 -30.484375 35.234375 -30.5 35.234375 -30.53125 C 35.171875 -30.5625 35.101562 -30.609375 35.03125 -30.671875 Z M 35.03125 -30.671875 "/></g></g></g><g fill="#bdb1a5" fill-opacity="1"><g transform="translate(230.277717, 158.672228)"><g><path d="M 16.203125 -11.703125 C 16.273438 -11.703125 16.359375 -11.679688 16.453125 -11.640625 C 16.554688 -11.609375 16.632812 -11.5625 16.6875 -11.5 C 16.90625 -11.3125 16.929688 -11.082031 16.765625 -10.8125 C 16.554688 -10.582031 16.351562 -10.382812 16.15625 -10.21875 C 15 -9.15625 13.71875 -8.265625 12.3125 -7.546875 C 10.09375 -6.421875 7.648438 -5.84375 4.984375 -5.8125 C 3.992188 -5.789062 2.976562 -5.957031 1.9375 -6.3125 C 0.0195312 -7.0625 -0.757812 -8.445312 -0.40625 -10.46875 C 0.03125 -12.34375 1.085938 -13.894531 2.765625 -15.125 C 4.441406 -16.363281 6.238281 -16.898438 8.15625 -16.734375 C 8.519531 -16.679688 8.878906 -16.597656 9.234375 -16.484375 C 9.566406 -16.359375 9.8125 -16.160156 9.96875 -15.890625 C 10.132812 -15.628906 10.148438 -15.414062 10.015625 -15.25 C 9.660156 -14.863281 9.25 -14.769531 8.78125 -14.96875 C 8.09375 -15.257812 7.457031 -15.335938 6.875 -15.203125 C 6.300781 -15.078125 5.722656 -14.765625 5.140625 -14.265625 C 4.578125 -13.828125 3.960938 -13.195312 3.296875 -12.375 C 2.640625 -11.550781 2.222656 -10.71875 2.046875 -9.875 C 1.867188 -9.039062 2.242188 -8.363281 3.171875 -7.84375 C 4.210938 -7.375 5.28125 -7.257812 6.375 -7.5 C 9.101562 -8.050781 11.632812 -9.085938 13.96875 -10.609375 C 14.1875 -10.710938 14.375 -10.832031 14.53125 -10.96875 C 14.789062 -11.15625 15.050781 -11.3125 15.3125 -11.4375 C 15.570312 -11.570312 15.867188 -11.660156 16.203125 -11.703125 Z M 16.203125 -11.703125 "/></g></g></g><g fill="#bdb1a5" fill-opacity="1"><g transform="translate(245.264931, 158.672228)"><g><path d="M 83.78125 -34.984375 C 83.613281 -34.953125 83.429688 -34.953125 83.234375 -34.984375 C 83.046875 -35.015625 82.867188 -35.097656 82.703125 -35.234375 C 82.515625 -35.421875 82.429688 -35.597656 82.453125 -35.765625 C 82.484375 -35.929688 82.550781 -36.082031 82.65625 -36.21875 C 84.226562 -38.75 85.59375 -41.398438 86.75 -44.171875 C 87.488281 -45.878906 88.132812 -47.640625 88.6875 -49.453125 C 89.039062 -50.578125 89.066406 -51.785156 88.765625 -53.078125 C 88.484375 -54.453125 87.660156 -55.421875 86.296875 -55.984375 C 85.253906 -56.378906 84.1875 -56.59375 83.09375 -56.625 C 82.894531 -56.625 82.695312 -56.625 82.5 -56.625 C 80.195312 -56.53125 77.957031 -56.195312 75.78125 -55.625 C 72.019531 -54.71875 68.382812 -53.582031 64.875 -52.21875 C 61.363281 -50.863281 57.929688 -49.390625 54.578125 -47.796875 C 39.847656 -40.628906 26.664062 -31.582031 15.03125 -20.65625 C 12.09375 -18.007812 9.523438 -15.054688 7.328125 -11.796875 C 6.554688 -10.640625 5.878906 -9.421875 5.296875 -8.140625 C 4.972656 -7.421875 4.742188 -6.644531 4.609375 -5.8125 C 4.109375 -3.144531 5.257812 -1.15625 8.0625 0.15625 C 10.425781 1.25 12.832031 1.863281 15.28125 2 C 17.195312 2.164062 19.0625 2.25 20.875 2.25 C 21.726562 2.25 22.550781 2.210938 23.34375 2.140625 C 34.875 2.015625 45.765625 0.515625 56.015625 -2.359375 C 56.179688 -2.421875 56.347656 -2.46875 56.515625 -2.5 C 57.203125 -2.738281 57.925781 -2.925781 58.6875 -3.0625 C 58.882812 -3.082031 59.207031 -3.109375 59.65625 -3.140625 C 60.113281 -3.171875 60.550781 -3.144531 60.96875 -3.0625 C 61.382812 -2.976562 61.644531 -2.789062 61.75 -2.5 C 61.769531 -2.332031 61.738281 -2.207031 61.65625 -2.125 C 61.582031 -2.039062 61.460938 -1.984375 61.296875 -1.953125 C 60.660156 -1.785156 60.035156 -1.617188 59.421875 -1.453125 C 57.566406 -0.960938 55.71875 -0.484375 53.875 -0.015625 C 43.5 2.648438 32.722656 3.941406 21.546875 3.859375 C 19.242188 3.859375 16.9375 3.816406 14.625 3.734375 C 12.03125 3.628906 9.429688 3.082031 6.828125 2.09375 C 1.648438 0.0820312 -0.160156 -3.226562 1.390625 -7.84375 C 2.023438 -9.6875 2.914062 -11.382812 4.0625 -12.9375 C 5.664062 -15.25 7.441406 -17.390625 9.390625 -19.359375 C 11.335938 -21.335938 13.367188 -23.25 15.484375 -25.09375 C 24.898438 -33.394531 35.265625 -40.523438 46.578125 -46.484375 C 50.035156 -48.296875 53.554688 -49.984375 57.140625 -51.546875 C 60.734375 -53.117188 64.441406 -54.503906 68.265625 -55.703125 C 71.460938 -56.722656 74.753906 -57.492188 78.140625 -58.015625 C 79.503906 -58.210938 80.863281 -58.3125 82.21875 -58.3125 C 83.09375 -58.3125 83.984375 -58.28125 84.890625 -58.21875 C 85.929688 -58.113281 86.976562 -57.894531 88.03125 -57.5625 C 90.875 -56.539062 92.328125 -54.660156 92.390625 -51.921875 C 92.390625 -50.710938 92.222656 -49.546875 91.890625 -48.421875 C 91.203125 -46.242188 90.359375 -44.148438 89.359375 -42.140625 C 88.359375 -40.140625 87.28125 -38.179688 86.125 -36.265625 C 85.789062 -35.609375 85.257812 -35.179688 84.53125 -34.984375 C 84.300781 -34.953125 84.085938 -34.953125 83.890625 -34.984375 Z M 83.78125 -34.984375 "/></g></g></g><g fill="#bdb1a5" fill-opacity="1"><g transform="translate(309.280751, 158.672228)"><g><path d="M 0.5625 -3.984375 C -0.863281 -3.984375 -1.578125 -4.722656 -1.578125 -6.203125 C -1.578125 -8.015625 -0.398438 -11.210938 1.953125 -15.796875 C 2.046875 -15.992188 2.210938 -16.09375 2.453125 -16.09375 C 3.390625 -16.09375 3.859375 -15.71875 3.859375 -14.96875 C 3.859375 -14.695312 3.78125 -14.363281 3.625 -13.96875 C 3.5625 -13.863281 2.773438 -11.890625 1.265625 -8.046875 C 1.023438 -7.410156 0.90625 -6.945312 0.90625 -6.65625 C 0.90625 -6.320312 1.050781 -6.15625 1.34375 -6.15625 C 2.4375 -6.15625 5.304688 -8.875 9.953125 -14.3125 C 10.554688 -15.039062 11.148438 -15.40625 11.734375 -15.40625 C 12.585938 -15.40625 13.015625 -15.09375 13.015625 -14.46875 C 13.015625 -14.226562 12.75 -13.320312 12.21875 -11.75 C 11.5 -9.601562 11.140625 -8.367188 11.140625 -8.046875 C 11.140625 -7.546875 11.304688 -7.296875 11.640625 -7.296875 C 12.460938 -7.296875 14.863281 -8.765625 18.84375 -11.703125 C 19.070312 -11.898438 19.269531 -12 19.4375 -12 C 19.8125 -12 20 -11.679688 20 -11.046875 C 20 -10.890625 19.945312 -10.757812 19.84375 -10.65625 C 17.726562 -8.84375 15.929688 -7.460938 14.453125 -6.515625 C 13.097656 -5.648438 11.898438 -5.21875 10.859375 -5.21875 L 10.53125 -5.21875 C 8.988281 -5.539062 8.21875 -6.742188 8.21875 -8.828125 C 6.570312 -7.378906 5.207031 -6.207031 4.125 -5.3125 C 3.039062 -4.425781 1.851562 -3.984375 0.5625 -3.984375 Z M 0.5625 -3.984375 "/></g></g></g><g fill="#bdb1a5" fill-opacity="1"><g transform="translate(327.75074, 158.672228)"><g><path d="M 10.875 -10.71875 C 11.363281 -11.207031 11.773438 -11.484375 12.109375 -11.546875 C 12.441406 -11.609375 12.65625 -11.554688 12.75 -11.390625 C 12.84375 -11.222656 12.78125 -11 12.5625 -10.71875 C 11.238281 -9.125 9.757812 -7.75 8.125 -6.59375 C 6.5 -5.445312 4.820312 -4.785156 3.09375 -4.609375 C 1.363281 -4.429688 0.316406 -5.375 -0.046875 -7.4375 C -0.316406 -9.488281 0.921875 -13.664062 3.671875 -19.96875 C 6.429688 -26.28125 8.613281 -31.453125 10.21875 -35.484375 C 10.351562 -35.835938 10.554688 -36.148438 10.828125 -36.421875 C 11.191406 -36.773438 11.617188 -36.859375 12.109375 -36.671875 C 12.273438 -36.597656 12.441406 -36.476562 12.609375 -36.3125 C 12.773438 -36.144531 12.828125 -35.851562 12.765625 -35.4375 C 5.679688 -18.625 2.25 -9.484375 2.46875 -8.015625 C 2.695312 -6.546875 3.644531 -6.179688 5.3125 -6.921875 C 6.976562 -7.671875 8.265625 -8.429688 9.171875 -9.203125 C 10.078125 -9.972656 10.644531 -10.476562 10.875 -10.71875 Z M 10.875 -10.71875 "/></g></g></g><g fill="#bdb1a5" fill-opacity="1"><g transform="translate(338.963066, 158.672228)"><g><path d="M 10.875 -10.71875 C 11.363281 -11.207031 11.773438 -11.484375 12.109375 -11.546875 C 12.441406 -11.609375 12.65625 -11.554688 12.75 -11.390625 C 12.84375 -11.222656 12.78125 -11 12.5625 -10.71875 C 11.238281 -9.125 9.757812 -7.75 8.125 -6.59375 C 6.5 -5.445312 4.820312 -4.785156 3.09375 -4.609375 C 1.363281 -4.429688 0.316406 -5.375 -0.046875 -7.4375 C -0.316406 -9.488281 0.921875 -13.664062 3.671875 -19.96875 C 6.429688 -26.28125 8.613281 -31.453125 10.21875 -35.484375 C 10.351562 -35.835938 10.554688 -36.148438 10.828125 -36.421875 C 11.191406 -36.773438 11.617188 -36.859375 12.109375 -36.671875 C 12.273438 -36.597656 12.441406 -36.476562 12.609375 -36.3125 C 12.773438 -36.144531 12.828125 -35.851562 12.765625 -35.4375 C 5.679688 -18.625 2.25 -9.484375 2.46875 -8.015625 C 2.695312 -6.546875 3.644531 -6.179688 5.3125 -6.921875 C 6.976562 -7.671875 8.265625 -8.429688 9.171875 -9.203125 C 10.078125 -9.972656 10.644531 -10.476562 10.875 -10.71875 Z M 10.875 -10.71875 "/></g></g></g><g fill="#bdb1a5" fill-opacity="1"><g transform="translate(350.175392, 158.672228)"><g><path d="M 3.578125 -5.328125 L 3.5 -5.328125 C 1.332031 -5.359375 -0.09375 -5.835938 -0.78125 -6.765625 C -1.46875 -7.703125 -1.441406 -8.953125 -0.703125 -10.515625 C -0.0664062 -11.703125 0.726562 -12.734375 1.6875 -13.609375 C 2.007812 -13.910156 2.34375 -14.148438 2.6875 -14.328125 C 3.039062 -14.515625 3.429688 -14.609375 3.859375 -14.609375 C 4.117188 -14.648438 4.410156 -14.601562 4.734375 -14.46875 C 4.835938 -14.4375 4.945312 -14.398438 5.0625 -14.359375 C 5.3125 -14.398438 5.554688 -14.484375 5.796875 -14.609375 C 5.859375 -14.648438 5.941406 -14.6875 6.046875 -14.71875 C 6.535156 -14.914062 7.054688 -15 7.609375 -14.96875 C 7.835938 -14.96875 8.070312 -14.96875 8.3125 -14.96875 C 9.195312 -14.832031 9.863281 -14.457031 10.3125 -13.84375 C 10.757812 -13.238281 10.914062 -12.503906 10.78125 -11.640625 C 10.707031 -11.117188 10.546875 -10.625 10.296875 -10.15625 C 8.566406 -7.070312 6.367188 -5.460938 3.703125 -5.328125 Z M 7.125 -13.375 C 5.9375 -13.414062 4.878906 -13.070312 3.953125 -12.34375 C 3.035156 -11.613281 2.351562 -10.773438 1.90625 -9.828125 C 1.457031 -8.890625 1.332031 -8.117188 1.53125 -7.515625 C 1.738281 -6.910156 2.367188 -6.742188 3.421875 -7.015625 C 4.597656 -7.367188 5.640625 -8.039062 6.546875 -9.03125 C 7.453125 -10.019531 8.003906 -10.957031 8.203125 -11.84375 C 8.410156 -12.738281 8.050781 -13.25 7.125 -13.375 Z M 7.125 -13.375 "/></g></g></g><g fill="#bdb1a5" fill-opacity="1"><g transform="translate(362.106744, 158.672228)"><g><path d="M 0.5625 -3.984375 C -0.863281 -3.984375 -1.578125 -4.722656 -1.578125 -6.203125 C -1.578125 -8.015625 -0.398438 -11.210938 1.953125 -15.796875 C 2.046875 -15.992188 2.210938 -16.09375 2.453125 -16.09375 C 3.390625 -16.09375 3.859375 -15.71875 3.859375 -14.96875 C 3.859375 -14.695312 3.78125 -14.363281 3.625 -13.96875 C 3.5625 -13.863281 2.773438 -11.890625 1.265625 -8.046875 C 1.023438 -7.410156 0.90625 -6.945312 0.90625 -6.65625 C 0.90625 -6.320312 1.050781 -6.15625 1.34375 -6.15625 C 2.4375 -6.15625 5.304688 -8.875 9.953125 -14.3125 C 10.554688 -15.039062 11.148438 -15.40625 11.734375 -15.40625 C 12.585938 -15.40625 13.015625 -15.09375 13.015625 -14.46875 C 13.015625 -14.226562 12.75 -13.320312 12.21875 -11.75 C 11.5 -9.601562 11.140625 -8.367188 11.140625 -8.046875 C 11.140625 -7.546875 11.304688 -7.296875 11.640625 -7.296875 C 12.460938 -7.296875 14.863281 -8.765625 18.84375 -11.703125 C 19.070312 -11.898438 19.269531 -12 19.4375 -12 C 19.8125 -12 20 -11.679688 20 -11.046875 C 20 -10.890625 19.945312 -10.757812 19.84375 -10.65625 C 17.726562 -8.84375 15.929688 -7.460938 14.453125 -6.515625 C 13.097656 -5.648438 11.898438 -5.21875 10.859375 -5.21875 L 10.53125 -5.21875 C 8.988281 -5.539062 8.21875 -6.742188 8.21875 -8.828125 C 6.570312 -7.378906 5.207031 -6.207031 4.125 -5.3125 C 3.039062 -4.425781 1.851562 -3.984375 0.5625 -3.984375 Z M 0.5625 -3.984375 "/></g></g></g><g fill="#bdb1a5" fill-opacity="1"><g transform="translate(380.576733, 158.672228)"><g><path d="M 19.84375 -12.046875 C 19.957031 -12.078125 20.085938 -12.078125 20.234375 -12.046875 C 20.390625 -12.015625 20.503906 -11.945312 20.578125 -11.84375 C 20.671875 -11.675781 20.664062 -11.507812 20.5625 -11.34375 C 20.46875 -11.175781 20.320312 -11.050781 20.125 -10.96875 C 18.78125 -10.300781 17.425781 -9.617188 16.0625 -8.921875 C 14.457031 -8.097656 12.847656 -7.273438 11.234375 -6.453125 C 10.992188 -6.359375 10.757812 -6.242188 10.53125 -6.109375 C 10.175781 -5.910156 9.816406 -5.734375 9.453125 -5.578125 C 8.628906 -5.171875 8.082031 -4.539062 7.8125 -3.6875 C 7.09375 -1.644531 6.335938 0.375 5.546875 2.375 C 4.523438 5.0625 3.253906 7.617188 1.734375 10.046875 C 0.878906 11.441406 -0.15625 12.675781 -1.375 13.75 C -2.820312 15.113281 -4.484375 15.972656 -6.359375 16.328125 C -9.460938 16.960938 -12.453125 16.765625 -15.328125 15.734375 C -16.503906 15.304688 -17.519531 14.628906 -18.375 13.703125 C -19.53125 12.460938 -19.582031 11.128906 -18.53125 9.703125 C -18.070312 9.109375 -17.554688 8.546875 -16.984375 8.015625 C -15.710938 6.867188 -14.335938 5.835938 -12.859375 4.921875 C -7.535156 1.515625 -2.070312 -1.613281 3.53125 -4.46875 C 3.5625 -4.46875 3.578125 -4.46875 3.578125 -4.46875 C 4.160156 -4.769531 4.734375 -5.085938 5.296875 -5.421875 C 5.390625 -5.492188 5.519531 -5.648438 5.6875 -5.890625 C 5.851562 -6.140625 5.972656 -6.390625 6.046875 -6.640625 C 6.128906 -6.890625 6.109375 -7.066406 5.984375 -7.171875 C 5.859375 -7.285156 5.550781 -7.234375 5.0625 -7.015625 C 4.863281 -6.929688 4.679688 -6.847656 4.515625 -6.765625 C 4.078125 -6.554688 3.644531 -6.367188 3.21875 -6.203125 C 0.65625 -5.585938 -0.625 -6.578125 -0.625 -9.171875 C -0.570312 -10.722656 -0.109375 -12.125 0.765625 -13.375 C 1.648438 -14.625 2.769531 -15.601562 4.125 -16.3125 C 5.488281 -17.03125 6.96875 -17.304688 8.5625 -17.140625 C 8.726562 -17.140625 8.894531 -17.117188 9.0625 -17.078125 C 9.488281 -17.015625 9.921875 -16.984375 10.359375 -16.984375 C 10.804688 -16.984375 11.265625 -17.082031 11.734375 -17.28125 C 12.222656 -17.476562 12.59375 -17.421875 12.84375 -17.109375 C 13.09375 -16.804688 13.132812 -16.40625 12.96875 -15.90625 C 12.53125 -14.976562 12.101562 -14.035156 11.6875 -13.078125 C 11.382812 -12.492188 11.097656 -11.882812 10.828125 -11.25 C 10.523438 -10.59375 10.234375 -9.921875 9.953125 -9.234375 C 9.546875 -8.335938 9.484375 -7.863281 9.765625 -7.8125 C 10.054688 -7.769531 10.546875 -7.929688 11.234375 -8.296875 C 11.328125 -8.316406 11.425781 -8.34375 11.53125 -8.375 C 12.78125 -8.976562 14.046875 -9.570312 15.328125 -10.15625 C 16.222656 -10.5625 17.113281 -10.972656 18 -11.390625 C 18.59375 -11.660156 19.207031 -11.878906 19.84375 -12.046875 Z M 3.859375 0.015625 C 4.328125 -1.296875 4.523438 -2.15625 4.453125 -2.5625 C 4.390625 -2.976562 4.101562 -3.085938 3.59375 -2.890625 C 3.082031 -2.703125 2.414062 -2.34375 1.59375 -1.8125 C 1.070312 -1.488281 0.492188 -1.160156 -0.140625 -0.828125 C -3.921875 1.222656 -7.613281 3.414062 -11.21875 5.75 C -12.800781 6.675781 -14.210938 7.800781 -15.453125 9.125 C -16.773438 10.53125 -16.734375 11.78125 -15.328125 12.875 C -14.503906 13.53125 -13.582031 13.988281 -12.5625 14.25 C -11.550781 14.519531 -10.441406 14.65625 -9.234375 14.65625 C -7.804688 14.757812 -6.484375 14.492188 -5.265625 13.859375 C -4.054688 13.234375 -2.9375 12.289062 -1.90625 11.03125 C -1.289062 10.207031 -0.703125 9.351562 -0.140625 8.46875 C 1.515625 5.769531 2.847656 2.953125 3.859375 0.015625 Z M 2.375 -7.9375 C 2.769531 -7.769531 3.335938 -7.910156 4.078125 -8.359375 C 4.816406 -8.804688 5.578125 -9.421875 6.359375 -10.203125 C 7.140625 -10.992188 7.753906 -11.800781 8.203125 -12.625 C 8.660156 -13.445312 8.78125 -14.144531 8.5625 -14.71875 C 8.5 -14.882812 8.398438 -15.035156 8.265625 -15.171875 C 8.023438 -15.453125 7.757812 -15.582031 7.46875 -15.5625 C 7.175781 -15.550781 6.863281 -15.5 6.53125 -15.40625 C 5.4375 -14.976562 4.46875 -14.234375 3.625 -13.171875 C 2.789062 -12.117188 2.234375 -11.078125 1.953125 -10.046875 C 1.679688 -9.015625 1.820312 -8.3125 2.375 -7.9375 Z M 2.375 -7.9375 "/></g></g></g><g fill="#bdb1a5" fill-opacity="1"><g transform="translate(399.765747, 158.672228)"><g><path d="M 18.25 -10.46875 C 17.976562 -10.226562 17.691406 -10.007812 17.390625 -9.8125 C 16.429688 -9.21875 15.566406 -8.75 14.796875 -8.40625 C 14.023438 -8.0625 13.113281 -7.707031 12.0625 -7.34375 C 10.507812 -6.882812 9.507812 -6.988281 9.0625 -7.65625 C 8.625 -8.332031 8.554688 -9.269531 8.859375 -10.46875 C 9.273438 -12.175781 9.515625 -13.425781 9.578125 -14.21875 C 9.648438 -15.007812 9.390625 -15.28125 8.796875 -15.03125 C 8.203125 -14.789062 7.128906 -13.972656 5.578125 -12.578125 C 3.398438 -10.710938 1.539062 -8.570312 0 -6.15625 C -0.195312 -5.820312 -0.4375 -5.550781 -0.71875 -5.34375 C -1 -5.132812 -1.351562 -5.03125 -1.78125 -5.03125 C -2.175781 -5.03125 -2.460938 -5.132812 -2.640625 -5.34375 C -2.828125 -5.550781 -2.835938 -5.835938 -2.671875 -6.203125 C -1.785156 -8.148438 -0.878906 -10.082031 0.046875 -12 C 1.628906 -15.320312 3.191406 -18.628906 4.734375 -21.921875 C 5.890625 -24.398438 7.03125 -26.875 8.15625 -29.34375 C 8.84375 -30.789062 9.515625 -32.242188 10.171875 -33.703125 C 10.234375 -33.816406 10.300781 -33.941406 10.375 -34.078125 C 10.4375 -34.242188 10.507812 -34.410156 10.59375 -34.578125 C 10.675781 -34.742188 10.769531 -34.925781 10.875 -35.125 C 10.96875 -35.28125 11.132812 -35.410156 11.375 -35.515625 C 11.625 -35.628906 11.875 -35.695312 12.125 -35.71875 C 12.375 -35.75 12.5625 -35.738281 12.6875 -35.6875 C 12.882812 -35.550781 12.992188 -35.40625 13.015625 -35.25 C 13.035156 -35.101562 13.007812 -34.945312 12.9375 -34.78125 C 12.90625 -34.75 12.890625 -34.695312 12.890625 -34.625 C 12.597656 -33.738281 12.285156 -32.882812 11.953125 -32.0625 C 10.046875 -27.476562 7.972656 -22.960938 5.734375 -18.515625 C 5.566406 -18.210938 5.367188 -17.851562 5.140625 -17.4375 C 4.816406 -16.832031 4.507812 -16.242188 4.21875 -15.671875 C 3.9375 -15.097656 3.84375 -14.710938 3.9375 -14.515625 C 4.039062 -14.316406 4.488281 -14.46875 5.28125 -14.96875 C 5.519531 -15.132812 5.738281 -15.296875 5.9375 -15.453125 C 6.5625 -15.878906 7.179688 -16.28125 7.796875 -16.65625 C 8.335938 -17.007812 8.9375 -17.203125 9.59375 -17.234375 C 11.164062 -17.335938 12.050781 -16.625 12.25 -15.09375 C 12.320312 -14.476562 12.296875 -13.867188 12.171875 -13.265625 C 12.054688 -12.671875 11.914062 -12.082031 11.75 -11.5 C 11.71875 -11.332031 11.6875 -11.171875 11.65625 -11.015625 C 11.382812 -9.992188 11.457031 -9.40625 11.875 -9.25 C 12.289062 -9.101562 12.867188 -9.1875 13.609375 -9.5 C 14.347656 -9.8125 15.097656 -10.195312 15.859375 -10.65625 C 16.390625 -10.914062 16.851562 -11.144531 17.25 -11.34375 C 17.644531 -11.539062 17.9375 -11.625 18.125 -11.59375 C 18.488281 -11.53125 18.65625 -11.382812 18.625 -11.15625 C 18.59375 -10.925781 18.46875 -10.695312 18.25 -10.46875 Z M 18.25 -10.46875 "/></g></g></g><g fill="#524a40" fill-opacity="1"><g transform="translate(61.617359, 82.629812)"><g><path d="M 44.234375 -44.296875 L 44.234375 0 L 39.609375 0 L 39.609375 -20.4375 L 11.890625 -20.4375 L 11.890625 0 L 7.21875 0 L 7.21875 -44.296875 L 11.890625 -44.296875 L 11.890625 -24.546875 L 39.609375 -24.546875 L 39.609375 -44.296875 Z M 44.234375 -44.296875 "/></g></g></g><g fill="#524a40" fill-opacity="1"><g transform="translate(141.609125, 82.629812)"><g><path d="M 35 -11.828125 L 10.3125 -11.828125 L 5 0 L 0.125 0 L 20.375 -44.296875 L 25 -44.296875 L 45.25 0 L 40.3125 0 Z M 33.28125 -15.625 L 22.65625 -39.421875 L 12.03125 -15.625 Z M 33.28125 -15.625 "/></g></g></g><g fill="#524a40" fill-opacity="1"><g transform="translate(215.525879, 82.629812)"><g><path d="M 44.234375 -44.296875 L 44.234375 0 L 40.375 0 L 11.890625 -35.9375 L 11.890625 0 L 7.21875 0 L 7.21875 -44.296875 L 11.078125 -44.296875 L 39.609375 -8.359375 L 39.609375 -44.296875 Z M 44.234375 -44.296875 "/></g></g></g><g fill="#524a40" fill-opacity="1"><g transform="translate(295.517645, 82.629812)"><g><path d="M 44.234375 -44.296875 L 44.234375 0 L 40.375 0 L 11.890625 -35.9375 L 11.890625 0 L 7.21875 0 L 7.21875 -44.296875 L 11.078125 -44.296875 L 39.609375 -8.359375 L 39.609375 -44.296875 Z M 44.234375 -44.296875 "/></g></g></g><g fill="#524a40" fill-opacity="1"><g transform="translate(375.509397, 82.629812)"><g><path d="M 35 -11.828125 L 10.3125 -11.828125 L 5 0 L 0.125 0 L 20.375 -44.296875 L 25 -44.296875 L 45.25 0 L 40.3125 0 Z M 33.28125 -15.625 L 22.65625 -39.421875 L 12.03125 -15.625 Z M 33.28125 -15.625 "/></g></g></g><g fill="#524a40" fill-opacity="1"><g transform="translate(449.426137, 82.629812)"><g><path d="M 44.234375 -44.296875 L 44.234375 0 L 39.609375 0 L 39.609375 -20.4375 L 11.890625 -20.4375 L 11.890625 0 L 7.21875 0 L 7.21875 -44.296875 L 11.890625 -44.296875 L 11.890625 -24.546875 L 39.609375 -24.546875 L 39.609375 -44.296875 Z M 44.234375 -44.296875 "/></g></g></g><g fill="#3f3931" fill-opacity="1"><g transform="translate(203.046224, 200.54114)"><g><path d="M 2.296875 -7.765625 L 2.296875 -4.40625 L 6.71875 -4.40625 L 6.71875 -3.625 L 2.296875 -3.625 L 2.296875 0 L 1.390625 0 L 1.390625 -8.546875 L 7.25 -8.546875 L 7.25 -7.765625 Z M 2.296875 -7.765625 "/></g></g></g><g fill="#3f3931" fill-opacity="1"><g transform="translate(210.771426, 200.54114)"><g><path d="M 7.21875 0 L 5.265625 -2.75 C 5.046875 -2.71875 4.820312 -2.703125 4.59375 -2.703125 L 2.296875 -2.703125 L 2.296875 0 L 1.390625 0 L 1.390625 -8.546875 L 4.59375 -8.546875 C 5.675781 -8.546875 6.523438 -8.285156 7.140625 -7.765625 C 7.765625 -7.242188 8.078125 -6.523438 8.078125 -5.609375 C 8.078125 -4.941406 7.90625 -4.378906 7.5625 -3.921875 C 7.226562 -3.460938 6.75 -3.128906 6.125 -2.921875 L 8.21875 0 Z M 4.5625 -3.484375 C 5.40625 -3.484375 6.050781 -3.664062 6.5 -4.03125 C 6.945312 -4.40625 7.171875 -4.929688 7.171875 -5.609375 C 7.171875 -6.304688 6.945312 -6.835938 6.5 -7.203125 C 6.050781 -7.578125 5.40625 -7.765625 4.5625 -7.765625 L 2.296875 -7.765625 L 2.296875 -3.484375 Z M 4.5625 -3.484375 "/></g></g></g><g fill="#3f3931" fill-opacity="1"><g transform="translate(219.594995, 200.54114)"><g><path d="M 5.125 0.078125 C 4.28125 0.078125 3.515625 -0.109375 2.828125 -0.484375 C 2.140625 -0.867188 1.601562 -1.390625 1.21875 -2.046875 C 0.832031 -2.703125 0.640625 -3.441406 0.640625 -4.265625 C 0.640625 -5.085938 0.832031 -5.828125 1.21875 -6.484375 C 1.601562 -7.148438 2.140625 -7.671875 2.828125 -8.046875 C 3.515625 -8.421875 4.28125 -8.609375 5.125 -8.609375 C 5.96875 -8.609375 6.726562 -8.421875 7.40625 -8.046875 C 8.09375 -7.679688 8.628906 -7.164062 9.015625 -6.5 C 9.410156 -5.832031 9.609375 -5.085938 9.609375 -4.265625 C 9.609375 -3.441406 9.410156 -2.695312 9.015625 -2.03125 C 8.628906 -1.375 8.09375 -0.859375 7.40625 -0.484375 C 6.726562 -0.109375 5.96875 0.078125 5.125 0.078125 Z M 5.125 -0.734375 C 5.800781 -0.734375 6.410156 -0.882812 6.953125 -1.1875 C 7.503906 -1.488281 7.929688 -1.910156 8.234375 -2.453125 C 8.546875 -2.992188 8.703125 -3.597656 8.703125 -4.265625 C 8.703125 -4.929688 8.546875 -5.535156 8.234375 -6.078125 C 7.929688 -6.617188 7.503906 -7.039062 6.953125 -7.34375 C 6.410156 -7.65625 5.800781 -7.8125 5.125 -7.8125 C 4.445312 -7.8125 3.832031 -7.65625 3.28125 -7.34375 C 2.738281 -7.039062 2.3125 -6.617188 2 -6.078125 C 1.6875 -5.535156 1.53125 -4.929688 1.53125 -4.265625 C 1.53125 -3.597656 1.6875 -2.992188 2 -2.453125 C 2.3125 -1.910156 2.738281 -1.488281 3.28125 -1.1875 C 3.832031 -0.882812 4.445312 -0.734375 5.125 -0.734375 Z M 5.125 -0.734375 "/></g></g></g><g fill="#3f3931" fill-opacity="1"><g transform="translate(229.834236, 200.54114)"><g><path d="M 8.53125 -8.546875 L 8.53125 0 L 7.78125 0 L 2.296875 -6.9375 L 2.296875 0 L 1.390625 0 L 1.390625 -8.546875 L 2.140625 -8.546875 L 7.640625 -1.609375 L 7.640625 -8.546875 Z M 8.53125 -8.546875 "/></g></g></g><g fill="#3f3931" fill-opacity="1"><g transform="translate(239.756172, 200.54114)"><g><path d="M 3.046875 -7.765625 L 0.046875 -7.765625 L 0.046875 -8.546875 L 6.953125 -8.546875 L 6.953125 -7.765625 L 3.953125 -7.765625 L 3.953125 0 L 3.046875 0 Z M 3.046875 -7.765625 "/></g></g></g><g fill="#3f3931" fill-opacity="1"><g transform="translate(246.761327, 200.54114)"><g/></g></g><g fill="#3f3931" fill-opacity="1"><g transform="translate(249.958805, 200.54114)"><g><path d="M 7.4375 -0.78125 L 7.4375 0 L 1.390625 0 L 1.390625 -8.546875 L 7.25 -8.546875 L 7.25 -7.765625 L 2.296875 -7.765625 L 2.296875 -4.71875 L 6.71875 -4.71875 L 6.71875 -3.953125 L 2.296875 -3.953125 L 2.296875 -0.78125 Z M 7.4375 -0.78125 "/></g></g></g><g fill="#3f3931" fill-opacity="1"><g transform="translate(258.123357, 200.54114)"><g><path d="M 8.53125 -8.546875 L 8.53125 0 L 7.78125 0 L 2.296875 -6.9375 L 2.296875 0 L 1.390625 0 L 1.390625 -8.546875 L 2.140625 -8.546875 L 7.640625 -1.609375 L 7.640625 -8.546875 Z M 8.53125 -8.546875 "/></g></g></g><g fill="#3f3931" fill-opacity="1"><g transform="translate(268.045293, 200.54114)"><g><path d="M 1.390625 -8.546875 L 4.875 -8.546875 C 5.769531 -8.546875 6.5625 -8.363281 7.25 -8 C 7.945312 -7.632812 8.484375 -7.128906 8.859375 -6.484375 C 9.242188 -5.835938 9.4375 -5.097656 9.4375 -4.265625 C 9.4375 -3.441406 9.242188 -2.707031 8.859375 -2.0625 C 8.484375 -1.414062 7.945312 -0.910156 7.25 -0.546875 C 6.5625 -0.179688 5.769531 0 4.875 0 L 1.390625 0 Z M 4.8125 -0.78125 C 5.5625 -0.78125 6.21875 -0.925781 6.78125 -1.21875 C 7.34375 -1.519531 7.773438 -1.929688 8.078125 -2.453125 C 8.390625 -2.984375 8.546875 -3.585938 8.546875 -4.265625 C 8.546875 -4.953125 8.390625 -5.554688 8.078125 -6.078125 C 7.773438 -6.609375 7.34375 -7.019531 6.78125 -7.3125 C 6.21875 -7.613281 5.5625 -7.765625 4.8125 -7.765625 L 2.296875 -7.765625 L 2.296875 -0.78125 Z M 4.8125 -0.78125 "/></g></g></g><g fill="#3f3931" fill-opacity="1"><g transform="translate(278.125882, 200.54114)"><g/></g></g><g fill="#3f3931" fill-opacity="1"><g transform="translate(281.32336, 200.54114)"><g><path d="M 1.390625 -8.546875 L 4.875 -8.546875 C 5.769531 -8.546875 6.5625 -8.363281 7.25 -8 C 7.945312 -7.632812 8.484375 -7.128906 8.859375 -6.484375 C 9.242188 -5.835938 9.4375 -5.097656 9.4375 -4.265625 C 9.4375 -3.441406 9.242188 -2.707031 8.859375 -2.0625 C 8.484375 -1.414062 7.945312 -0.910156 7.25 -0.546875 C 6.5625 -0.179688 5.769531 0 4.875 0 L 1.390625 0 Z M 4.8125 -0.78125 C 5.5625 -0.78125 6.21875 -0.925781 6.78125 -1.21875 C 7.34375 -1.519531 7.773438 -1.929688 8.078125 -2.453125 C 8.390625 -2.984375 8.546875 -3.585938 8.546875 -4.265625 C 8.546875 -4.953125 8.390625 -5.554688 8.078125 -6.078125 C 7.773438 -6.609375 7.34375 -7.019531 6.78125 -7.3125 C 6.21875 -7.613281 5.5625 -7.765625 4.8125 -7.765625 L 2.296875 -7.765625 L 2.296875 -0.78125 Z M 4.8125 -0.78125 "/></g></g></g><g fill="#3f3931" fill-opacity="1"><g transform="translate(291.403948, 200.54114)"><g><path d="M 7.4375 -0.78125 L 7.4375 0 L 1.390625 0 L 1.390625 -8.546875 L 7.25 -8.546875 L 7.25 -7.765625 L 2.296875 -7.765625 L 2.296875 -4.71875 L 6.71875 -4.71875 L 6.71875 -3.953125 L 2.296875 -3.953125 L 2.296875 -0.78125 Z M 7.4375 -0.78125 "/></g></g></g><g fill="#3f3931" fill-opacity="1"><g transform="translate(299.5685, 200.54114)"><g><path d="M 8.5 -8.546875 L 4.703125 0 L 3.8125 0 L 0.03125 -8.546875 L 1.015625 -8.546875 L 4.28125 -1.125 L 7.578125 -8.546875 Z M 8.5 -8.546875 "/></g></g></g><g fill="#3f3931" fill-opacity="1"><g transform="translate(308.086963, 200.54114)"><g><path d="M 7.4375 -0.78125 L 7.4375 0 L 1.390625 0 L 1.390625 -8.546875 L 7.25 -8.546875 L 7.25 -7.765625 L 2.296875 -7.765625 L 2.296875 -4.71875 L 6.71875 -4.71875 L 6.71875 -3.953125 L 2.296875 -3.953125 L 2.296875 -0.78125 Z M 7.4375 -0.78125 "/></g></g></g><g fill="#3f3931" fill-opacity="1"><g transform="translate(316.251515, 200.54114)"><g><path d="M 1.390625 -8.546875 L 2.296875 -8.546875 L 2.296875 -0.78125 L 7.078125 -0.78125 L 7.078125 0 L 1.390625 0 Z M 1.390625 -8.546875 "/></g></g></g><g fill="#3f3931" fill-opacity="1"><g transform="translate(323.439731, 200.54114)"><g><path d="M 5.125 0.078125 C 4.28125 0.078125 3.515625 -0.109375 2.828125 -0.484375 C 2.140625 -0.867188 1.601562 -1.390625 1.21875 -2.046875 C 0.832031 -2.703125 0.640625 -3.441406 0.640625 -4.265625 C 0.640625 -5.085938 0.832031 -5.828125 1.21875 -6.484375 C 1.601562 -7.148438 2.140625 -7.671875 2.828125 -8.046875 C 3.515625 -8.421875 4.28125 -8.609375 5.125 -8.609375 C 5.96875 -8.609375 6.726562 -8.421875 7.40625 -8.046875 C 8.09375 -7.679688 8.628906 -7.164062 9.015625 -6.5 C 9.410156 -5.832031 9.609375 -5.085938 9.609375 -4.265625 C 9.609375 -3.441406 9.410156 -2.695312 9.015625 -2.03125 C 8.628906 -1.375 8.09375 -0.859375 7.40625 -0.484375 C 6.726562 -0.109375 5.96875 0.078125 5.125 0.078125 Z M 5.125 -0.734375 C 5.800781 -0.734375 6.410156 -0.882812 6.953125 -1.1875 C 7.503906 -1.488281 7.929688 -1.910156 8.234375 -2.453125 C 8.546875 -2.992188 8.703125 -3.597656 8.703125 -4.265625 C 8.703125 -4.929688 8.546875 -5.535156 8.234375 -6.078125 C 7.929688 -6.617188 7.503906 -7.039062 6.953125 -7.34375 C 6.410156 -7.65625 5.800781 -7.8125 5.125 -7.8125 C 4.445312 -7.8125 3.832031 -7.65625 3.28125 -7.34375 C 2.738281 -7.039062 2.3125 -6.617188 2 -6.078125 C 1.6875 -5.535156 1.53125 -4.929688 1.53125 -4.265625 C 1.53125 -3.597656 1.6875 -2.992188 2 -2.453125 C 2.3125 -1.910156 2.738281 -1.488281 3.28125 -1.1875 C 3.832031 -0.882812 4.445312 -0.734375 5.125 -0.734375 Z M 5.125 -0.734375 "/></g></g></g><g fill="#3f3931" fill-opacity="1"><g transform="translate(333.678971, 200.54114)"><g><path d="M 4.59375 -8.546875 C 5.675781 -8.546875 6.523438 -8.285156 7.140625 -7.765625 C 7.765625 -7.242188 8.078125 -6.523438 8.078125 -5.609375 C 8.078125 -4.703125 7.765625 -3.988281 7.140625 -3.46875 C 6.523438 -2.957031 5.675781 -2.703125 4.59375 -2.703125 L 2.296875 -2.703125 L 2.296875 0 L 1.390625 0 L 1.390625 -8.546875 Z M 4.5625 -3.484375 C 5.40625 -3.484375 6.050781 -3.664062 6.5 -4.03125 C 6.945312 -4.40625 7.171875 -4.929688 7.171875 -5.609375 C 7.171875 -6.304688 6.945312 -6.835938 6.5 -7.203125 C 6.050781 -7.578125 5.40625 -7.765625 4.5625 -7.765625 L 2.296875 -7.765625 L 2.296875 -3.484375 Z M 4.5625 -3.484375 "/></g></g></g><g fill="#3f3931" fill-opacity="1"><g transform="translate(342.441525, 200.54114)"><g><path d="M 7.4375 -0.78125 L 7.4375 0 L 1.390625 0 L 1.390625 -8.546875 L 7.25 -8.546875 L 7.25 -7.765625 L 2.296875 -7.765625 L 2.296875 -4.71875 L 6.71875 -4.71875 L 6.71875 -3.953125 L 2.296875 -3.953125 L 2.296875 -0.78125 Z M 7.4375 -0.78125 "/></g></g></g><g fill="#3f3931" fill-opacity="1"><g transform="translate(350.606077, 200.54114)"><g><path d="M 7.21875 0 L 5.265625 -2.75 C 5.046875 -2.71875 4.820312 -2.703125 4.59375 -2.703125 L 2.296875 -2.703125 L 2.296875 0 L 1.390625 0 L 1.390625 -8.546875 L 4.59375 -8.546875 C 5.675781 -8.546875 6.523438 -8.285156 7.140625 -7.765625 C 7.765625 -7.242188 8.078125 -6.523438 8.078125 -5.609375 C 8.078125 -4.941406 7.90625 -4.378906 7.5625 -3.921875 C 7.226562 -3.460938 6.75 -3.128906 6.125 -2.921875 L 8.21875 0 Z M 4.5625 -3.484375 C 5.40625 -3.484375 6.050781 -3.664062 6.5 -4.03125 C 6.945312 -4.40625 7.171875 -4.929688 7.171875 -5.609375 C 7.171875 -6.304688 6.945312 -6.835938 6.5 -7.203125 C 6.050781 -7.578125 5.40625 -7.765625 4.5625 -7.765625 L 2.296875 -7.765625 L 2.296875 -3.484375 Z M 4.5625 -3.484375 "/></g></g></g></svg>