<svg xmlns="http://www.w3.org/2000/svg" xmlns:xlink="http://www.w3.org/1999/xlink" width="500" zoomAndPan="magnify" viewBox="0 0 375 374.999991" height="500" preserveAspectRatio="xMidYMid meet" version="1.0"><defs><g/></defs><g fill="#bdb1a5" fill-opacity="1"><g transform="translate(76.384436, 243.054537)"><g><path d="M 80.765625 -44.40625 C 80.679688 -44.1875 80.597656 -43.960938 80.515625 -43.734375 C 79.648438 -41.503906 78.722656 -39.3125 77.734375 -37.15625 C 72.597656 -26.488281 67.085938 -16.175781 61.203125 -6.21875 C 59.285156 -3.007812 57.328125 0.144531 55.328125 3.25 C 53.328125 6.351562 51.316406 9.445312 49.296875 12.53125 C 48.816406 13.257812 48.332031 13.984375 47.84375 14.703125 C 47.820312 14.765625 47.796875 14.804688 47.765625 14.828125 C 47.660156 15.046875 47.535156 15.226562 47.390625 15.375 C 47.242188 15.53125 47.046875 15.609375 46.796875 15.609375 C 46.679688 15.609375 46.5625 15.578125 46.4375 15.515625 C 46.320312 15.460938 46.226562 15.394531 46.15625 15.3125 C 46.09375 15.238281 46.046875 15.117188 46.015625 14.953125 C 45.992188 14.785156 46.007812 14.65625 46.0625 14.5625 C 46.394531 13.84375 46.765625 13.164062 47.171875 12.53125 C 48.078125 11.050781 48.988281 9.566406 49.90625 8.078125 C 51.632812 5.316406 53.332031 2.550781 55 -0.21875 C 58.707031 -6.40625 62.25 -12.71875 65.625 -19.15625 C 69 -25.59375 72.289062 -32.101562 75.5 -38.6875 C 76.789062 -41.21875 77.851562 -43.929688 78.6875 -46.828125 C 78.851562 -47.335938 78.984375 -47.859375 79.078125 -48.390625 C 79.171875 -48.929688 79.21875 -49.492188 79.21875 -50.078125 C 79.132812 -51.316406 78.609375 -51.851562 77.640625 -51.6875 C 76.773438 -51.519531 75.960938 -51.25 75.203125 -50.875 C 73.398438 -50.007812 71.625 -49.050781 69.875 -48 C 60.445312 -42.28125 51.863281 -35.179688 44.125 -26.703125 C 44.019531 -26.566406 43.898438 -26.429688 43.765625 -26.296875 C 41.085938 -23.390625 38.429688 -20.457031 35.796875 -17.5 C 33.171875 -14.539062 30.617188 -11.5 28.140625 -8.375 C 27.617188 -7.71875 27.078125 -7.109375 26.515625 -6.546875 C 25.910156 -5.921875 25.191406 -5.675781 24.359375 -5.8125 C 24.003906 -5.863281 23.710938 -6.039062 23.484375 -6.34375 C 23.265625 -6.644531 23.175781 -6.992188 23.21875 -7.390625 C 23.394531 -8.492188 23.640625 -9.5625 23.953125 -10.59375 C 24.953125 -13.863281 26.007812 -17.085938 27.125 -20.265625 C 27.28125 -20.753906 27.425781 -21.222656 27.5625 -21.671875 C 27.863281 -22.867188 28.28125 -23.96875 28.8125 -24.96875 C 28.8125 -25 28.800781 -25.015625 28.78125 -25.015625 C 28.644531 -25.085938 28.507812 -25.144531 28.375 -25.1875 C 28.238281 -25.226562 28.101562 -25.179688 27.96875 -25.046875 C 27.476562 -24.503906 27.003906 -23.941406 26.546875 -23.359375 C 22.816406 -18.296875 19.125 -13.191406 15.46875 -8.046875 C 11.820312 -2.910156 8.253906 2.3125 4.765625 7.625 C 4.472656 8.132812 4.144531 8.550781 3.78125 8.875 C 3.414062 9.195312 2.9375 9.304688 2.34375 9.203125 C 2.070312 9.128906 1.859375 8.960938 1.703125 8.703125 C 1.554688 8.441406 1.53125 8.191406 1.625 7.953125 C 1.9375 7.222656 2.285156 6.535156 2.671875 5.890625 C 3.742188 4.023438 4.8125 2.160156 5.875 0.296875 C 7.988281 -3.398438 10.09375 -7.113281 12.1875 -10.84375 C 15.425781 -16.5625 18.3125 -22.578125 20.84375 -28.890625 C 21.84375 -31.316406 22.65625 -33.867188 23.28125 -36.546875 C 23.625 -37.972656 23.769531 -39.457031 23.71875 -41 C 23.5625 -43.476562 22.738281 -45.25 21.25 -46.3125 C 19.769531 -47.382812 17.820312 -47.890625 15.40625 -47.828125 C 12.988281 -47.773438 10.304688 -47.28125 7.359375 -46.34375 C 4.410156 -45.414062 1.394531 -44.1875 -1.6875 -42.65625 C -4.78125 -41.125 -7.757812 -39.429688 -10.625 -37.578125 C -13.5 -35.722656 -16.054688 -33.84375 -18.296875 -31.9375 C -20.535156 -30.039062 -22.28125 -28.257812 -23.53125 -26.59375 C -24.84375 -24.75 -25.960938 -22.722656 -26.890625 -20.515625 C -27.347656 -19.460938 -27.613281 -18.316406 -27.6875 -17.078125 C -27.71875 -16.828125 -27.84375 -16.640625 -28.0625 -16.515625 C -28.28125 -16.398438 -28.523438 -16.367188 -28.796875 -16.421875 C -29.222656 -16.546875 -29.492188 -16.878906 -29.609375 -17.421875 C -29.679688 -18.140625 -29.625 -18.789062 -29.4375 -19.375 C -29.039062 -20.863281 -28.503906 -22.269531 -27.828125 -23.59375 C -26.585938 -25.90625 -24.703125 -28.269531 -22.171875 -30.6875 C -19.648438 -33.101562 -16.707031 -35.421875 -13.34375 -37.640625 C -9.976562 -39.859375 -6.46875 -41.832031 -2.8125 -43.5625 C 0.84375 -45.300781 4.414062 -46.648438 7.90625 -47.609375 C 11.40625 -48.578125 14.554688 -49.007812 17.359375 -48.90625 C 20.160156 -48.8125 22.367188 -48.039062 23.984375 -46.59375 C 25.609375 -45.15625 26.398438 -42.882812 26.359375 -39.78125 C 26.265625 -37.78125 25.945312 -35.878906 25.40625 -34.078125 C 24.625 -31.429688 23.71875 -28.867188 22.6875 -26.390625 C 21.664062 -23.921875 20.582031 -21.503906 19.4375 -19.140625 C 19.082031 -18.398438 19.003906 -18.039062 19.203125 -18.0625 C 19.398438 -18.082031 19.703125 -18.363281 20.109375 -18.90625 C 21.566406 -20.84375 23.03125 -22.753906 24.5 -24.640625 C 25.488281 -25.898438 26.5 -27.140625 27.53125 -28.359375 C 27.664062 -28.523438 27.800781 -28.691406 27.9375 -28.859375 C 28.519531 -29.578125 29.226562 -30.0625 30.0625 -30.3125 C 30.6875 -30.445312 31.210938 -30.304688 31.640625 -29.890625 C 32.078125 -29.472656 32.226562 -28.847656 32.09375 -28.015625 C 32.070312 -27.921875 32.046875 -27.832031 32.015625 -27.75 C 31.796875 -26.664062 31.539062 -25.617188 31.25 -24.609375 C 30.457031 -22.117188 29.644531 -19.644531 28.8125 -17.1875 C 28.40625 -15.925781 28.003906 -14.644531 27.609375 -13.34375 C 27.515625 -13.15625 27.390625 -12.816406 27.234375 -12.328125 C 27.078125 -11.898438 26.921875 -11.476562 26.765625 -11.0625 C 26.617188 -10.644531 26.503906 -10.328125 26.421875 -10.109375 C 26.535156 -10.191406 27.535156 -11.3125 29.421875 -13.46875 C 31.984375 -16.414062 35.019531 -19.863281 38.53125 -23.8125 C 42.039062 -27.757812 44.796875 -30.773438 46.796875 -32.859375 C 50.484375 -36.578125 54.375 -39.960938 58.46875 -43.015625 C 62.5625 -46.066406 66.804688 -48.820312 71.203125 -51.28125 C 72.273438 -51.851562 73.382812 -52.363281 74.53125 -52.8125 C 74.769531 -52.894531 75.007812 -52.992188 75.25 -53.109375 C 76.320312 -53.535156 77.46875 -53.695312 78.6875 -53.59375 C 81.019531 -53.363281 82.085938 -51.890625 81.890625 -49.171875 C 81.753906 -47.472656 81.378906 -45.882812 80.765625 -44.40625 Z M 28.6875 -25.125 C 28.75 -25.070312 28.789062 -25.035156 28.8125 -25.015625 C 28.8125 -25.015625 28.8125 -25 28.8125 -24.96875 C 28.84375 -24.96875 28.859375 -24.984375 28.859375 -25.015625 C 28.804688 -25.035156 28.75 -25.070312 28.6875 -25.125 Z M 28.6875 -25.125 "/></g></g></g><g fill="#bdb1a5" fill-opacity="1"><g transform="translate(145.749977, 243.054537)"><g><path d="M 13.265625 -9.59375 C 13.328125 -9.59375 13.394531 -9.578125 13.46875 -9.546875 C 13.550781 -9.515625 13.617188 -9.472656 13.671875 -9.421875 C 13.847656 -9.265625 13.867188 -9.070312 13.734375 -8.84375 C 13.554688 -8.664062 13.390625 -8.507812 13.234375 -8.375 C 12.285156 -7.5 11.234375 -6.769531 10.078125 -6.1875 C 8.265625 -5.257812 6.265625 -4.785156 4.078125 -4.765625 C 3.273438 -4.742188 2.441406 -4.878906 1.578125 -5.171875 C 0.015625 -5.785156 -0.617188 -6.921875 -0.328125 -8.578125 C 0.0234375 -10.109375 0.890625 -11.378906 2.265625 -12.390625 C 3.640625 -13.398438 5.113281 -13.835938 6.6875 -13.703125 C 6.976562 -13.660156 7.269531 -13.59375 7.5625 -13.5 C 7.832031 -13.394531 8.035156 -13.234375 8.171875 -13.015625 C 8.304688 -12.804688 8.316406 -12.632812 8.203125 -12.5 C 7.910156 -12.175781 7.570312 -12.09375 7.1875 -12.25 C 6.625 -12.5 6.109375 -12.566406 5.640625 -12.453125 C 5.171875 -12.347656 4.695312 -12.09375 4.21875 -11.6875 C 3.75 -11.332031 3.242188 -10.816406 2.703125 -10.140625 C 2.160156 -9.460938 1.816406 -8.78125 1.671875 -8.09375 C 1.523438 -7.40625 1.832031 -6.847656 2.59375 -6.421875 C 3.457031 -6.046875 4.332031 -5.953125 5.21875 -6.140625 C 7.457031 -6.597656 9.535156 -7.445312 11.453125 -8.6875 C 11.617188 -8.769531 11.769531 -8.867188 11.90625 -8.984375 C 12.113281 -9.140625 12.320312 -9.269531 12.53125 -9.375 C 12.75 -9.476562 12.992188 -9.550781 13.265625 -9.59375 Z M 13.265625 -9.59375 "/></g></g></g><g fill="#bdb1a5" fill-opacity="1"><g transform="translate(158.025604, 243.054537)"><g><path d="M 68.625 -28.65625 C 68.488281 -28.625 68.335938 -28.617188 68.171875 -28.640625 C 68.015625 -28.671875 67.867188 -28.742188 67.734375 -28.859375 C 67.578125 -29.015625 67.507812 -29.160156 67.53125 -29.296875 C 67.5625 -29.429688 67.617188 -29.554688 67.703125 -29.671875 C 68.992188 -31.742188 70.109375 -33.910156 71.046875 -36.171875 C 71.648438 -37.578125 72.179688 -39.019531 72.640625 -40.5 C 72.929688 -41.425781 72.953125 -42.414062 72.703125 -43.46875 C 72.472656 -44.59375 71.800781 -45.390625 70.6875 -45.859375 C 69.820312 -46.179688 68.941406 -46.351562 68.046875 -46.375 C 67.890625 -46.375 67.734375 -46.375 67.578125 -46.375 C 65.679688 -46.300781 63.84375 -46.03125 62.0625 -45.5625 C 58.988281 -44.8125 56.015625 -43.878906 53.140625 -42.765625 C 50.265625 -41.660156 47.453125 -40.453125 44.703125 -39.140625 C 32.640625 -33.273438 21.84375 -25.863281 12.3125 -16.90625 C 9.90625 -14.75 7.800781 -12.332031 6 -9.65625 C 5.375 -8.71875 4.820312 -7.71875 4.34375 -6.65625 C 4.070312 -6.070312 3.878906 -5.441406 3.765625 -4.765625 C 3.367188 -2.578125 4.316406 -0.945312 6.609375 0.125 C 8.546875 1.019531 10.515625 1.523438 12.515625 1.640625 C 14.085938 1.773438 15.613281 1.84375 17.09375 1.84375 C 17.789062 1.84375 18.46875 1.8125 19.125 1.75 C 28.570312 1.644531 37.488281 0.414062 45.875 -1.9375 C 46.007812 -1.976562 46.144531 -2.015625 46.28125 -2.046875 C 46.84375 -2.242188 47.4375 -2.394531 48.0625 -2.5 C 48.226562 -2.53125 48.492188 -2.554688 48.859375 -2.578125 C 49.234375 -2.597656 49.585938 -2.570312 49.921875 -2.5 C 50.265625 -2.4375 50.476562 -2.285156 50.5625 -2.046875 C 50.59375 -1.910156 50.570312 -1.804688 50.5 -1.734375 C 50.4375 -1.671875 50.335938 -1.625 50.203125 -1.59375 C 49.679688 -1.46875 49.171875 -1.335938 48.671875 -1.203125 C 47.148438 -0.796875 45.632812 -0.398438 44.125 -0.015625 C 35.625 2.160156 26.796875 3.222656 17.640625 3.171875 C 15.753906 3.171875 13.867188 3.132812 11.984375 3.0625 C 9.859375 2.96875 7.726562 2.519531 5.59375 1.71875 C 1.351562 0.0703125 -0.128906 -2.640625 1.140625 -6.421875 C 1.648438 -7.929688 2.378906 -9.320312 3.328125 -10.59375 C 4.640625 -12.488281 6.09375 -14.242188 7.6875 -15.859375 C 9.28125 -17.484375 10.941406 -19.050781 12.671875 -20.5625 C 20.390625 -27.351562 28.878906 -33.191406 38.140625 -38.078125 C 40.984375 -39.554688 43.875 -40.9375 46.8125 -42.21875 C 49.75 -43.5 52.78125 -44.632812 55.90625 -45.625 C 58.53125 -46.457031 61.226562 -47.085938 64 -47.515625 C 65.113281 -47.671875 66.222656 -47.75 67.328125 -47.75 C 68.054688 -47.75 68.785156 -47.726562 69.515625 -47.6875 C 70.378906 -47.59375 71.238281 -47.410156 72.09375 -47.140625 C 74.425781 -46.304688 75.617188 -44.769531 75.671875 -42.53125 C 75.671875 -41.53125 75.535156 -40.570312 75.265625 -39.65625 C 74.703125 -37.875 74.007812 -36.160156 73.1875 -34.515625 C 72.363281 -32.878906 71.476562 -31.273438 70.53125 -29.703125 C 70.257812 -29.160156 69.828125 -28.8125 69.234375 -28.65625 C 69.046875 -28.625 68.875 -28.625 68.71875 -28.65625 Z M 68.625 -28.65625 "/></g></g></g><g fill="#bdb1a5" fill-opacity="1"><g transform="translate(210.459257, 243.054537)"><g><path d="M 0.453125 -3.25 C -0.703125 -3.25 -1.28125 -3.859375 -1.28125 -5.078125 C -1.28125 -6.566406 -0.320312 -9.1875 1.59375 -12.9375 C 1.675781 -13.09375 1.8125 -13.171875 2 -13.171875 C 2.78125 -13.171875 3.171875 -12.863281 3.171875 -12.25 C 3.171875 -12.03125 3.101562 -11.765625 2.96875 -11.453125 C 2.914062 -11.359375 2.269531 -9.738281 1.03125 -6.59375 C 0.832031 -6.070312 0.734375 -5.691406 0.734375 -5.453125 C 0.734375 -5.179688 0.859375 -5.046875 1.109375 -5.046875 C 2.003906 -5.046875 4.351562 -7.269531 8.15625 -11.71875 C 8.644531 -12.320312 9.128906 -12.625 9.609375 -12.625 C 10.304688 -12.625 10.65625 -12.363281 10.65625 -11.84375 C 10.65625 -11.65625 10.441406 -10.914062 10.015625 -9.625 C 9.421875 -7.875 9.125 -6.863281 9.125 -6.59375 C 9.125 -6.1875 9.257812 -5.984375 9.53125 -5.984375 C 10.207031 -5.984375 12.175781 -7.1875 15.4375 -9.59375 C 15.625 -9.75 15.785156 -9.828125 15.921875 -9.828125 C 16.222656 -9.828125 16.375 -9.566406 16.375 -9.046875 C 16.375 -8.910156 16.332031 -8.800781 16.25 -8.71875 C 14.519531 -7.238281 13.046875 -6.113281 11.828125 -5.34375 C 10.722656 -4.625 9.742188 -4.265625 8.890625 -4.265625 L 8.625 -4.265625 C 7.363281 -4.535156 6.734375 -5.523438 6.734375 -7.234375 C 5.390625 -6.046875 4.269531 -5.082031 3.375 -4.34375 C 2.488281 -3.613281 1.515625 -3.25 0.453125 -3.25 Z M 0.453125 -3.25 "/></g></g></g><g fill="#bdb1a5" fill-opacity="1"><g transform="translate(225.587531, 243.054537)"><g><path d="M 8.90625 -8.78125 C 9.3125 -9.1875 9.648438 -9.410156 9.921875 -9.453125 C 10.191406 -9.503906 10.363281 -9.460938 10.4375 -9.328125 C 10.519531 -9.191406 10.46875 -9.007812 10.28125 -8.78125 C 9.207031 -7.476562 8 -6.351562 6.65625 -5.40625 C 5.320312 -4.46875 3.945312 -3.921875 2.53125 -3.765625 C 1.113281 -3.617188 0.257812 -4.394531 -0.03125 -6.09375 C -0.257812 -7.769531 0.753906 -11.191406 3.015625 -16.359375 C 5.273438 -21.523438 7.0625 -25.757812 8.375 -29.0625 C 8.476562 -29.351562 8.644531 -29.609375 8.875 -29.828125 C 9.164062 -30.117188 9.515625 -30.1875 9.921875 -30.03125 C 10.054688 -29.96875 10.191406 -29.867188 10.328125 -29.734375 C 10.460938 -29.597656 10.503906 -29.359375 10.453125 -29.015625 C 4.648438 -15.253906 1.835938 -7.769531 2.015625 -6.5625 C 2.203125 -5.363281 2.976562 -5.066406 4.34375 -5.671875 C 5.71875 -6.285156 6.773438 -6.90625 7.515625 -7.53125 C 8.253906 -8.164062 8.71875 -8.582031 8.90625 -8.78125 Z M 8.90625 -8.78125 "/></g></g></g><g fill="#bdb1a5" fill-opacity="1"><g transform="translate(234.771249, 243.054537)"><g><path d="M 8.90625 -8.78125 C 9.3125 -9.1875 9.648438 -9.410156 9.921875 -9.453125 C 10.191406 -9.503906 10.363281 -9.460938 10.4375 -9.328125 C 10.519531 -9.191406 10.46875 -9.007812 10.28125 -8.78125 C 9.207031 -7.476562 8 -6.351562 6.65625 -5.40625 C 5.320312 -4.46875 3.945312 -3.921875 2.53125 -3.765625 C 1.113281 -3.617188 0.257812 -4.394531 -0.03125 -6.09375 C -0.257812 -7.769531 0.753906 -11.191406 3.015625 -16.359375 C 5.273438 -21.523438 7.0625 -25.757812 8.375 -29.0625 C 8.476562 -29.351562 8.644531 -29.609375 8.875 -29.828125 C 9.164062 -30.117188 9.515625 -30.1875 9.921875 -30.03125 C 10.054688 -29.96875 10.191406 -29.867188 10.328125 -29.734375 C 10.460938 -29.597656 10.503906 -29.359375 10.453125 -29.015625 C 4.648438 -15.253906 1.835938 -7.769531 2.015625 -6.5625 C 2.203125 -5.363281 2.976562 -5.066406 4.34375 -5.671875 C 5.71875 -6.285156 6.773438 -6.90625 7.515625 -7.53125 C 8.253906 -8.164062 8.71875 -8.582031 8.90625 -8.78125 Z M 8.90625 -8.78125 "/></g></g></g><g fill="#bdb1a5" fill-opacity="1"><g transform="translate(243.954966, 243.054537)"><g><path d="M 2.921875 -4.359375 L 2.875 -4.359375 C 1.09375 -4.378906 -0.078125 -4.773438 -0.640625 -5.546875 C -1.203125 -6.316406 -1.179688 -7.335938 -0.578125 -8.609375 C -0.0546875 -9.578125 0.59375 -10.425781 1.375 -11.15625 C 1.644531 -11.394531 1.921875 -11.585938 2.203125 -11.734375 C 2.484375 -11.890625 2.804688 -11.96875 3.171875 -11.96875 C 3.378906 -12 3.617188 -11.957031 3.890625 -11.84375 C 3.972656 -11.820312 4.054688 -11.796875 4.140625 -11.765625 C 4.347656 -11.796875 4.550781 -11.863281 4.75 -11.96875 C 4.800781 -12 4.867188 -12.023438 4.953125 -12.046875 C 5.359375 -12.210938 5.785156 -12.28125 6.234375 -12.25 C 6.421875 -12.25 6.613281 -12.25 6.8125 -12.25 C 7.53125 -12.144531 8.070312 -11.84375 8.4375 -11.34375 C 8.8125 -10.84375 8.941406 -10.238281 8.828125 -9.53125 C 8.765625 -9.101562 8.628906 -8.695312 8.421875 -8.3125 C 7.015625 -5.789062 5.21875 -4.472656 3.03125 -4.359375 Z M 5.828125 -10.953125 C 4.859375 -10.984375 3.992188 -10.703125 3.234375 -10.109375 C 2.484375 -9.515625 1.925781 -8.832031 1.5625 -8.0625 C 1.195312 -7.289062 1.097656 -6.65625 1.265625 -6.15625 C 1.429688 -5.65625 1.941406 -5.515625 2.796875 -5.734375 C 3.765625 -6.035156 4.617188 -6.585938 5.359375 -7.390625 C 6.109375 -8.203125 6.5625 -8.972656 6.71875 -9.703125 C 6.882812 -10.429688 6.585938 -10.847656 5.828125 -10.953125 Z M 5.828125 -10.953125 "/></g></g></g><g fill="#bdb1a5" fill-opacity="1"><g transform="translate(253.727619, 243.054537)"><g><path d="M 0.453125 -3.25 C -0.703125 -3.25 -1.28125 -3.859375 -1.28125 -5.078125 C -1.28125 -6.566406 -0.320312 -9.1875 1.59375 -12.9375 C 1.675781 -13.09375 1.8125 -13.171875 2 -13.171875 C 2.78125 -13.171875 3.171875 -12.863281 3.171875 -12.25 C 3.171875 -12.03125 3.101562 -11.765625 2.96875 -11.453125 C 2.914062 -11.359375 2.269531 -9.738281 1.03125 -6.59375 C 0.832031 -6.070312 0.734375 -5.691406 0.734375 -5.453125 C 0.734375 -5.179688 0.859375 -5.046875 1.109375 -5.046875 C 2.003906 -5.046875 4.351562 -7.269531 8.15625 -11.71875 C 8.644531 -12.320312 9.128906 -12.625 9.609375 -12.625 C 10.304688 -12.625 10.65625 -12.363281 10.65625 -11.84375 C 10.65625 -11.65625 10.441406 -10.914062 10.015625 -9.625 C 9.421875 -7.875 9.125 -6.863281 9.125 -6.59375 C 9.125 -6.1875 9.257812 -5.984375 9.53125 -5.984375 C 10.207031 -5.984375 12.175781 -7.1875 15.4375 -9.59375 C 15.625 -9.75 15.785156 -9.828125 15.921875 -9.828125 C 16.222656 -9.828125 16.375 -9.566406 16.375 -9.046875 C 16.375 -8.910156 16.332031 -8.800781 16.25 -8.71875 C 14.519531 -7.238281 13.046875 -6.113281 11.828125 -5.34375 C 10.722656 -4.625 9.742188 -4.265625 8.890625 -4.265625 L 8.625 -4.265625 C 7.363281 -4.535156 6.734375 -5.523438 6.734375 -7.234375 C 5.390625 -6.046875 4.269531 -5.082031 3.375 -4.34375 C 2.488281 -3.613281 1.515625 -3.25 0.453125 -3.25 Z M 0.453125 -3.25 "/></g></g></g><g fill="#bdb1a5" fill-opacity="1"><g transform="translate(268.855894, 243.054537)"><g><path d="M 16.25 -9.859375 C 16.34375 -9.890625 16.453125 -9.890625 16.578125 -9.859375 C 16.703125 -9.835938 16.796875 -9.785156 16.859375 -9.703125 C 16.929688 -9.566406 16.925781 -9.429688 16.84375 -9.296875 C 16.769531 -9.160156 16.648438 -9.054688 16.484375 -8.984375 C 15.378906 -8.441406 14.269531 -7.882812 13.15625 -7.3125 C 11.84375 -6.632812 10.523438 -5.957031 9.203125 -5.28125 C 9.003906 -5.207031 8.8125 -5.113281 8.625 -5 C 8.332031 -4.84375 8.039062 -4.695312 7.75 -4.5625 C 7.070312 -4.226562 6.625 -3.710938 6.40625 -3.015625 C 5.8125 -1.347656 5.191406 0.304688 4.546875 1.953125 C 3.710938 4.148438 2.671875 6.238281 1.421875 8.21875 C 0.722656 9.363281 -0.125 10.378906 -1.125 11.265625 C -2.3125 12.378906 -3.671875 13.082031 -5.203125 13.375 C -7.742188 13.894531 -10.191406 13.726562 -12.546875 12.875 C -13.515625 12.53125 -14.347656 11.976562 -15.046875 11.21875 C -15.992188 10.207031 -16.039062 9.117188 -15.1875 7.953125 C -14.800781 7.460938 -14.375 7 -13.90625 6.5625 C -12.863281 5.625 -11.738281 4.78125 -10.53125 4.03125 C -6.175781 1.25 -1.703125 -1.3125 2.890625 -3.65625 C 2.910156 -3.65625 2.921875 -3.65625 2.921875 -3.65625 C 3.398438 -3.90625 3.875 -4.164062 4.34375 -4.4375 C 4.414062 -4.5 4.519531 -4.628906 4.65625 -4.828125 C 4.789062 -5.035156 4.890625 -5.238281 4.953125 -5.4375 C 5.023438 -5.632812 5.007812 -5.78125 4.90625 -5.875 C 4.800781 -5.96875 4.546875 -5.921875 4.140625 -5.734375 C 3.984375 -5.679688 3.835938 -5.613281 3.703125 -5.53125 C 3.347656 -5.363281 2.988281 -5.210938 2.625 -5.078125 C 0.53125 -4.578125 -0.515625 -5.390625 -0.515625 -7.515625 C -0.460938 -8.785156 -0.078125 -9.929688 0.640625 -10.953125 C 1.359375 -11.984375 2.273438 -12.789062 3.390625 -13.375 C 4.503906 -13.957031 5.710938 -14.179688 7.015625 -14.046875 C 7.148438 -14.046875 7.285156 -14.023438 7.421875 -13.984375 C 7.773438 -13.929688 8.128906 -13.90625 8.484375 -13.90625 C 8.847656 -13.90625 9.222656 -13.988281 9.609375 -14.15625 C 10.015625 -14.3125 10.316406 -14.265625 10.515625 -14.015625 C 10.722656 -13.765625 10.757812 -13.4375 10.625 -13.03125 C 10.257812 -12.269531 9.90625 -11.492188 9.5625 -10.703125 C 9.320312 -10.234375 9.09375 -9.738281 8.875 -9.21875 C 8.625 -8.675781 8.382812 -8.125 8.15625 -7.5625 C 7.820312 -6.820312 7.769531 -6.429688 8 -6.390625 C 8.238281 -6.359375 8.640625 -6.492188 9.203125 -6.796875 C 9.273438 -6.816406 9.351562 -6.835938 9.4375 -6.859375 C 10.46875 -7.347656 11.503906 -7.832031 12.546875 -8.3125 C 13.285156 -8.644531 14.015625 -8.984375 14.734375 -9.328125 C 15.222656 -9.546875 15.726562 -9.722656 16.25 -9.859375 Z M 3.171875 0.015625 C 3.546875 -1.054688 3.703125 -1.757812 3.640625 -2.09375 C 3.585938 -2.4375 3.351562 -2.53125 2.9375 -2.375 C 2.519531 -2.21875 1.976562 -1.921875 1.3125 -1.484375 C 0.875 -1.210938 0.398438 -0.945312 -0.109375 -0.6875 C -3.210938 1 -6.238281 2.800781 -9.1875 4.71875 C -10.488281 5.476562 -11.644531 6.394531 -12.65625 7.46875 C -13.738281 8.625 -13.703125 9.648438 -12.546875 10.546875 C -11.867188 11.085938 -11.113281 11.460938 -10.28125 11.671875 C -9.457031 11.890625 -8.550781 12 -7.5625 12 C -6.394531 12.082031 -5.3125 11.863281 -4.3125 11.34375 C -3.320312 10.832031 -2.40625 10.0625 -1.5625 9.03125 C -1.0625 8.351562 -0.578125 7.65625 -0.109375 6.9375 C 1.234375 4.726562 2.328125 2.421875 3.171875 0.015625 Z M 1.953125 -6.5 C 2.265625 -6.363281 2.722656 -6.476562 3.328125 -6.84375 C 3.941406 -7.207031 4.566406 -7.710938 5.203125 -8.359375 C 5.847656 -9.003906 6.351562 -9.664062 6.71875 -10.34375 C 7.09375 -11.019531 7.191406 -11.585938 7.015625 -12.046875 C 6.960938 -12.179688 6.878906 -12.304688 6.765625 -12.421875 C 6.578125 -12.648438 6.363281 -12.757812 6.125 -12.75 C 5.882812 -12.738281 5.628906 -12.695312 5.359375 -12.625 C 4.460938 -12.269531 3.671875 -11.660156 2.984375 -10.796875 C 2.296875 -9.929688 1.835938 -9.070312 1.609375 -8.21875 C 1.378906 -7.375 1.492188 -6.800781 1.953125 -6.5 Z M 1.953125 -6.5 "/></g></g></g><g fill="#bdb1a5" fill-opacity="1"><g transform="translate(284.573104, 243.054537)"><g><path d="M 14.9375 -8.578125 C 14.71875 -8.378906 14.488281 -8.203125 14.25 -8.046875 C 13.457031 -7.554688 12.742188 -7.164062 12.109375 -6.875 C 11.484375 -6.59375 10.738281 -6.304688 9.875 -6.015625 C 8.601562 -5.640625 7.785156 -5.726562 7.421875 -6.28125 C 7.054688 -6.832031 7 -7.597656 7.25 -8.578125 C 7.59375 -9.972656 7.789062 -10.992188 7.84375 -11.640625 C 7.90625 -12.296875 7.691406 -12.519531 7.203125 -12.3125 C 6.722656 -12.113281 5.84375 -11.445312 4.5625 -10.3125 C 2.78125 -8.769531 1.257812 -7.015625 0 -5.046875 C -0.15625 -4.773438 -0.347656 -4.550781 -0.578125 -4.375 C -0.816406 -4.207031 -1.109375 -4.125 -1.453125 -4.125 C -1.785156 -4.125 -2.023438 -4.207031 -2.171875 -4.375 C -2.316406 -4.550781 -2.320312 -4.785156 -2.1875 -5.078125 C -1.46875 -6.671875 -0.726562 -8.253906 0.03125 -9.828125 C 1.332031 -12.546875 2.617188 -15.253906 3.890625 -17.953125 C 4.828125 -19.984375 5.757812 -22.007812 6.6875 -24.03125 C 7.25 -25.21875 7.800781 -26.410156 8.34375 -27.609375 C 8.382812 -27.703125 8.4375 -27.804688 8.5 -27.921875 C 8.550781 -28.054688 8.609375 -28.1875 8.671875 -28.3125 C 8.742188 -28.445312 8.820312 -28.597656 8.90625 -28.765625 C 8.976562 -28.898438 9.113281 -29.007812 9.3125 -29.09375 C 9.519531 -29.175781 9.722656 -29.226562 9.921875 -29.25 C 10.128906 -29.28125 10.285156 -29.269531 10.390625 -29.21875 C 10.554688 -29.113281 10.644531 -29 10.65625 -28.875 C 10.675781 -28.75 10.65625 -28.617188 10.59375 -28.484375 C 10.570312 -28.460938 10.5625 -28.421875 10.5625 -28.359375 C 10.3125 -27.628906 10.054688 -26.929688 9.796875 -26.265625 C 8.234375 -22.503906 6.53125 -18.800781 4.6875 -15.15625 C 4.550781 -14.914062 4.394531 -14.625 4.21875 -14.28125 C 3.945312 -13.789062 3.691406 -13.304688 3.453125 -12.828125 C 3.222656 -12.359375 3.144531 -12.046875 3.21875 -11.890625 C 3.300781 -11.734375 3.671875 -11.851562 4.328125 -12.25 C 4.523438 -12.382812 4.703125 -12.519531 4.859375 -12.65625 C 5.367188 -13 5.878906 -13.328125 6.390625 -13.640625 C 6.828125 -13.929688 7.316406 -14.085938 7.859375 -14.109375 C 9.148438 -14.203125 9.875 -13.617188 10.03125 -12.359375 C 10.09375 -11.859375 10.070312 -11.363281 9.96875 -10.875 C 9.875 -10.382812 9.757812 -9.898438 9.625 -9.421875 C 9.601562 -9.285156 9.578125 -9.148438 9.546875 -9.015625 C 9.328125 -8.179688 9.382812 -7.703125 9.71875 -7.578125 C 10.0625 -7.453125 10.535156 -7.519531 11.140625 -7.78125 C 11.742188 -8.039062 12.359375 -8.351562 12.984375 -8.71875 C 13.421875 -8.9375 13.800781 -9.125 14.125 -9.28125 C 14.445312 -9.445312 14.6875 -9.519531 14.84375 -9.5 C 15.144531 -9.445312 15.28125 -9.320312 15.25 -9.125 C 15.226562 -8.9375 15.125 -8.753906 14.9375 -8.578125 Z M 14.9375 -8.578125 "/></g></g></g><g fill="#524a40" fill-opacity="1"><g transform="translate(7.604773, 180.770196)"><g><path d="M 36.234375 -36.28125 L 36.234375 0 L 32.4375 0 L 32.4375 -16.734375 L 9.75 -16.734375 L 9.75 0 L 5.90625 0 L 5.90625 -36.28125 L 9.75 -36.28125 L 9.75 -20.109375 L 32.4375 -20.109375 L 32.4375 -36.28125 Z M 36.234375 -36.28125 "/></g></g></g><g fill="#524a40" fill-opacity="1"><g transform="translate(73.123889, 180.770196)"><g><path d="M 28.65625 -9.6875 L 8.453125 -9.6875 L 4.09375 0 L 0.109375 0 L 16.6875 -36.28125 L 20.46875 -36.28125 L 37.0625 0 L 33.015625 0 Z M 27.265625 -12.796875 L 18.546875 -32.28125 L 9.84375 -12.796875 Z M 27.265625 -12.796875 "/></g></g></g><g fill="#524a40" fill-opacity="1"><g transform="translate(133.667124, 180.770196)"><g><path d="M 36.234375 -36.28125 L 36.234375 0 L 33.0625 0 L 9.75 -29.4375 L 9.75 0 L 5.90625 0 L 5.90625 -36.28125 L 9.0625 -36.28125 L 32.4375 -6.84375 L 32.4375 -36.28125 Z M 36.234375 -36.28125 "/></g></g></g><g fill="#524a40" fill-opacity="1"><g transform="translate(199.186239, 180.770196)"><g><path d="M 36.234375 -36.28125 L 36.234375 0 L 33.0625 0 L 9.75 -29.4375 L 9.75 0 L 5.90625 0 L 5.90625 -36.28125 L 9.0625 -36.28125 L 32.4375 -6.84375 L 32.4375 -36.28125 Z M 36.234375 -36.28125 "/></g></g></g><g fill="#524a40" fill-opacity="1"><g transform="translate(264.705342, 180.770196)"><g><path d="M 28.65625 -9.6875 L 8.453125 -9.6875 L 4.09375 0 L 0.109375 0 L 16.6875 -36.28125 L 20.46875 -36.28125 L 37.0625 0 L 33.015625 0 Z M 27.265625 -12.796875 L 18.546875 -32.28125 L 9.84375 -12.796875 Z M 27.265625 -12.796875 "/></g></g></g><g fill="#524a40" fill-opacity="1"><g transform="translate(325.248566, 180.770196)"><g><path d="M 36.234375 -36.28125 L 36.234375 0 L 32.4375 0 L 32.4375 -16.734375 L 9.75 -16.734375 L 9.75 0 L 5.90625 0 L 5.90625 -36.28125 L 9.75 -36.28125 L 9.75 -20.109375 L 32.4375 -20.109375 L 32.4375 -36.28125 Z M 36.234375 -36.28125 "/></g></g></g><g fill="#3f3931" fill-opacity="1"><g transform="translate(123.445375, 277.348225)"><g><path d="M 1.875 -6.359375 L 1.875 -3.609375 L 5.5 -3.609375 L 5.5 -2.96875 L 1.875 -2.96875 L 1.875 0 L 1.140625 0 L 1.140625 -7 L 5.9375 -7 L 5.9375 -6.359375 Z M 1.875 -6.359375 "/></g></g></g><g fill="#3f3931" fill-opacity="1"><g transform="translate(129.772881, 277.348225)"><g><path d="M 5.921875 0 L 4.3125 -2.25 C 4.132812 -2.226562 3.953125 -2.21875 3.765625 -2.21875 L 1.875 -2.21875 L 1.875 0 L 1.140625 0 L 1.140625 -7 L 3.765625 -7 C 4.648438 -7 5.347656 -6.785156 5.859375 -6.359375 C 6.367188 -5.929688 6.625 -5.34375 6.625 -4.59375 C 6.625 -4.050781 6.484375 -3.59375 6.203125 -3.21875 C 5.929688 -2.84375 5.535156 -2.570312 5.015625 -2.40625 L 6.734375 0 Z M 3.734375 -2.84375 C 4.429688 -2.84375 4.960938 -2.992188 5.328125 -3.296875 C 5.691406 -3.609375 5.875 -4.039062 5.875 -4.59375 C 5.875 -5.164062 5.691406 -5.601562 5.328125 -5.90625 C 4.960938 -6.207031 4.429688 -6.359375 3.734375 -6.359375 L 1.875 -6.359375 L 1.875 -2.84375 Z M 3.734375 -2.84375 "/></g></g></g><g fill="#3f3931" fill-opacity="1"><g transform="translate(137.000031, 277.348225)"><g><path d="M 4.203125 0.0625 C 3.503906 0.0625 2.875 -0.09375 2.3125 -0.40625 C 1.75 -0.71875 1.304688 -1.140625 0.984375 -1.671875 C 0.671875 -2.210938 0.515625 -2.820312 0.515625 -3.5 C 0.515625 -4.175781 0.671875 -4.78125 0.984375 -5.3125 C 1.304688 -5.851562 1.75 -6.28125 2.3125 -6.59375 C 2.875 -6.90625 3.503906 -7.0625 4.203125 -7.0625 C 4.890625 -7.0625 5.507812 -6.90625 6.0625 -6.59375 C 6.625 -6.289062 7.066406 -5.867188 7.390625 -5.328125 C 7.710938 -4.785156 7.875 -4.175781 7.875 -3.5 C 7.875 -2.820312 7.710938 -2.210938 7.390625 -1.671875 C 7.066406 -1.128906 6.625 -0.703125 6.0625 -0.390625 C 5.507812 -0.0859375 4.890625 0.0625 4.203125 0.0625 Z M 4.203125 -0.59375 C 4.753906 -0.59375 5.253906 -0.71875 5.703125 -0.96875 C 6.148438 -1.21875 6.5 -1.566406 6.75 -2.015625 C 7 -2.460938 7.125 -2.957031 7.125 -3.5 C 7.125 -4.039062 7 -4.535156 6.75 -4.984375 C 6.5 -5.429688 6.148438 -5.78125 5.703125 -6.03125 C 5.253906 -6.28125 4.753906 -6.40625 4.203125 -6.40625 C 3.648438 -6.40625 3.144531 -6.28125 2.6875 -6.03125 C 2.238281 -5.78125 1.882812 -5.429688 1.625 -4.984375 C 1.375 -4.535156 1.25 -4.039062 1.25 -3.5 C 1.25 -2.957031 1.375 -2.460938 1.625 -2.015625 C 1.882812 -1.566406 2.238281 -1.21875 2.6875 -0.96875 C 3.144531 -0.71875 3.648438 -0.59375 4.203125 -0.59375 Z M 4.203125 -0.59375 "/></g></g></g><g fill="#3f3931" fill-opacity="1"><g transform="translate(145.386719, 277.348225)"><g><path d="M 6.984375 -7 L 6.984375 0 L 6.375 0 L 1.875 -5.6875 L 1.875 0 L 1.140625 0 L 1.140625 -7 L 1.75 -7 L 6.265625 -1.3125 L 6.265625 -7 Z M 6.984375 -7 "/></g></g></g><g fill="#3f3931" fill-opacity="1"><g transform="translate(153.513511, 277.348225)"><g><path d="M 2.5 -6.359375 L 0.046875 -6.359375 L 0.046875 -7 L 5.703125 -7 L 5.703125 -6.359375 L 3.234375 -6.359375 L 3.234375 0 L 2.5 0 Z M 2.5 -6.359375 "/></g></g></g><g fill="#3f3931" fill-opacity="1"><g transform="translate(159.251246, 277.348225)"><g/></g></g><g fill="#3f3931" fill-opacity="1"><g transform="translate(161.870215, 277.348225)"><g><path d="M 6.09375 -0.640625 L 6.09375 0 L 1.140625 0 L 1.140625 -7 L 5.9375 -7 L 5.9375 -6.359375 L 1.875 -6.359375 L 1.875 -3.875 L 5.5 -3.875 L 5.5 -3.234375 L 1.875 -3.234375 L 1.875 -0.640625 Z M 6.09375 -0.640625 "/></g></g></g><g fill="#3f3931" fill-opacity="1"><g transform="translate(168.557581, 277.348225)"><g><path d="M 6.984375 -7 L 6.984375 0 L 6.375 0 L 1.875 -5.6875 L 1.875 0 L 1.140625 0 L 1.140625 -7 L 1.75 -7 L 6.265625 -1.3125 L 6.265625 -7 Z M 6.984375 -7 "/></g></g></g><g fill="#3f3931" fill-opacity="1"><g transform="translate(176.684374, 277.348225)"><g><path d="M 1.140625 -7 L 3.984375 -7 C 4.722656 -7 5.375 -6.847656 5.9375 -6.546875 C 6.507812 -6.253906 6.953125 -5.84375 7.265625 -5.3125 C 7.578125 -4.78125 7.734375 -4.175781 7.734375 -3.5 C 7.734375 -2.820312 7.578125 -2.21875 7.265625 -1.6875 C 6.953125 -1.15625 6.507812 -0.738281 5.9375 -0.4375 C 5.375 -0.144531 4.722656 0 3.984375 0 L 1.140625 0 Z M 3.953125 -0.640625 C 4.566406 -0.640625 5.101562 -0.757812 5.5625 -1 C 6.019531 -1.25 6.375 -1.585938 6.625 -2.015625 C 6.882812 -2.441406 7.015625 -2.9375 7.015625 -3.5 C 7.015625 -4.0625 6.882812 -4.554688 6.625 -4.984375 C 6.375 -5.410156 6.019531 -5.742188 5.5625 -5.984375 C 5.101562 -6.234375 4.566406 -6.359375 3.953125 -6.359375 L 1.875 -6.359375 L 1.875 -0.640625 Z M 3.953125 -0.640625 "/></g></g></g><g fill="#3f3931" fill-opacity="1"><g transform="translate(184.941114, 277.348225)"><g/></g></g><g fill="#3f3931" fill-opacity="1"><g transform="translate(187.560082, 277.348225)"><g><path d="M 1.140625 -7 L 3.984375 -7 C 4.722656 -7 5.375 -6.847656 5.9375 -6.546875 C 6.507812 -6.253906 6.953125 -5.84375 7.265625 -5.3125 C 7.578125 -4.78125 7.734375 -4.175781 7.734375 -3.5 C 7.734375 -2.820312 7.578125 -2.21875 7.265625 -1.6875 C 6.953125 -1.15625 6.507812 -0.738281 5.9375 -0.4375 C 5.375 -0.144531 4.722656 0 3.984375 0 L 1.140625 0 Z M 3.953125 -0.640625 C 4.566406 -0.640625 5.101562 -0.757812 5.5625 -1 C 6.019531 -1.25 6.375 -1.585938 6.625 -2.015625 C 6.882812 -2.441406 7.015625 -2.9375 7.015625 -3.5 C 7.015625 -4.0625 6.882812 -4.554688 6.625 -4.984375 C 6.375 -5.410156 6.019531 -5.742188 5.5625 -5.984375 C 5.101562 -6.234375 4.566406 -6.359375 3.953125 -6.359375 L 1.875 -6.359375 L 1.875 -0.640625 Z M 3.953125 -0.640625 "/></g></g></g><g fill="#3f3931" fill-opacity="1"><g transform="translate(195.816822, 277.348225)"><g><path d="M 6.09375 -0.640625 L 6.09375 0 L 1.140625 0 L 1.140625 -7 L 5.9375 -7 L 5.9375 -6.359375 L 1.875 -6.359375 L 1.875 -3.875 L 5.5 -3.875 L 5.5 -3.234375 L 1.875 -3.234375 L 1.875 -0.640625 Z M 6.09375 -0.640625 "/></g></g></g><g fill="#3f3931" fill-opacity="1"><g transform="translate(202.504188, 277.348225)"><g><path d="M 6.953125 -7 L 3.859375 0 L 3.125 0 L 0.03125 -7 L 0.828125 -7 L 3.515625 -0.921875 L 6.203125 -7 Z M 6.953125 -7 "/></g></g></g><g fill="#3f3931" fill-opacity="1"><g transform="translate(209.481433, 277.348225)"><g><path d="M 6.09375 -0.640625 L 6.09375 0 L 1.140625 0 L 1.140625 -7 L 5.9375 -7 L 5.9375 -6.359375 L 1.875 -6.359375 L 1.875 -3.875 L 5.5 -3.875 L 5.5 -3.234375 L 1.875 -3.234375 L 1.875 -0.640625 Z M 6.09375 -0.640625 "/></g></g></g><g fill="#3f3931" fill-opacity="1"><g transform="translate(216.168799, 277.348225)"><g><path d="M 1.140625 -7 L 1.875 -7 L 1.875 -0.640625 L 5.796875 -0.640625 L 5.796875 0 L 1.140625 0 Z M 1.140625 -7 "/></g></g></g><g fill="#3f3931" fill-opacity="1"><g transform="translate(222.056475, 277.348225)"><g><path d="M 4.203125 0.0625 C 3.503906 0.0625 2.875 -0.09375 2.3125 -0.40625 C 1.75 -0.71875 1.304688 -1.140625 0.984375 -1.671875 C 0.671875 -2.210938 0.515625 -2.820312 0.515625 -3.5 C 0.515625 -4.175781 0.671875 -4.78125 0.984375 -5.3125 C 1.304688 -5.851562 1.75 -6.28125 2.3125 -6.59375 C 2.875 -6.90625 3.503906 -7.0625 4.203125 -7.0625 C 4.890625 -7.0625 5.507812 -6.90625 6.0625 -6.59375 C 6.625 -6.289062 7.066406 -5.867188 7.390625 -5.328125 C 7.710938 -4.785156 7.875 -4.175781 7.875 -3.5 C 7.875 -2.820312 7.710938 -2.210938 7.390625 -1.671875 C 7.066406 -1.128906 6.625 -0.703125 6.0625 -0.390625 C 5.507812 -0.0859375 4.890625 0.0625 4.203125 0.0625 Z M 4.203125 -0.59375 C 4.753906 -0.59375 5.253906 -0.71875 5.703125 -0.96875 C 6.148438 -1.21875 6.5 -1.566406 6.75 -2.015625 C 7 -2.460938 7.125 -2.957031 7.125 -3.5 C 7.125 -4.039062 7 -4.535156 6.75 -4.984375 C 6.5 -5.429688 6.148438 -5.78125 5.703125 -6.03125 C 5.253906 -6.28125 4.753906 -6.40625 4.203125 -6.40625 C 3.648438 -6.40625 3.144531 -6.28125 2.6875 -6.03125 C 2.238281 -5.78125 1.882812 -5.429688 1.625 -4.984375 C 1.375 -4.535156 1.25 -4.039062 1.25 -3.5 C 1.25 -2.957031 1.375 -2.460938 1.625 -2.015625 C 1.882812 -1.566406 2.238281 -1.21875 2.6875 -0.96875 C 3.144531 -0.71875 3.648438 -0.59375 4.203125 -0.59375 Z M 4.203125 -0.59375 "/></g></g></g><g fill="#3f3931" fill-opacity="1"><g transform="translate(230.443163, 277.348225)"><g><path d="M 3.765625 -7 C 4.648438 -7 5.347656 -6.785156 5.859375 -6.359375 C 6.367188 -5.929688 6.625 -5.34375 6.625 -4.59375 C 6.625 -3.851562 6.367188 -3.269531 5.859375 -2.84375 C 5.347656 -2.414062 4.648438 -2.203125 3.765625 -2.203125 L 1.875 -2.203125 L 1.875 0 L 1.140625 0 L 1.140625 -7 Z M 3.734375 -2.859375 C 4.429688 -2.859375 4.960938 -3.007812 5.328125 -3.3125 C 5.691406 -3.613281 5.875 -4.039062 5.875 -4.59375 C 5.875 -5.164062 5.691406 -5.601562 5.328125 -5.90625 C 4.960938 -6.207031 4.429688 -6.359375 3.734375 -6.359375 L 1.875 -6.359375 L 1.875 -2.859375 Z M 3.734375 -2.859375 "/></g></g></g><g fill="#3f3931" fill-opacity="1"><g transform="translate(237.620336, 277.348225)"><g><path d="M 6.09375 -0.640625 L 6.09375 0 L 1.140625 0 L 1.140625 -7 L 5.9375 -7 L 5.9375 -6.359375 L 1.875 -6.359375 L 1.875 -3.875 L 5.5 -3.875 L 5.5 -3.234375 L 1.875 -3.234375 L 1.875 -0.640625 Z M 6.09375 -0.640625 "/></g></g></g><g fill="#3f3931" fill-opacity="1"><g transform="translate(244.307702, 277.348225)"><g><path d="M 5.921875 0 L 4.3125 -2.25 C 4.132812 -2.226562 3.953125 -2.21875 3.765625 -2.21875 L 1.875 -2.21875 L 1.875 0 L 1.140625 0 L 1.140625 -7 L 3.765625 -7 C 4.648438 -7 5.347656 -6.785156 5.859375 -6.359375 C 6.367188 -5.929688 6.625 -5.34375 6.625 -4.59375 C 6.625 -4.050781 6.484375 -3.59375 6.203125 -3.21875 C 5.929688 -2.84375 5.535156 -2.570312 5.015625 -2.40625 L 6.734375 0 Z M 3.734375 -2.84375 C 4.429688 -2.84375 4.960938 -2.992188 5.328125 -3.296875 C 5.691406 -3.609375 5.875 -4.039062 5.875 -4.59375 C 5.875 -5.164062 5.691406 -5.601562 5.328125 -5.90625 C 4.960938 -6.207031 4.429688 -6.359375 3.734375 -6.359375 L 1.875 -6.359375 L 1.875 -2.84375 Z M 3.734375 -2.84375 "/></g></g></g></svg>