<svg xmlns="http://www.w3.org/2000/svg" xmlns:xlink="http://www.w3.org/1999/xlink" width="1000" zoomAndPan="magnify" viewBox="0 0 750 225" height="300" preserveAspectRatio="xMidYMid meet" version="1.0"><defs><g/></defs><g fill="#3e3e3b" fill-opacity="1"><g transform="translate(46.214167, 151.748749)"><g><path d="M 168.921875 1.28125 C 169.015625 1.320312 169.109375 1.40625 169.203125 1.53125 C 169.304688 1.65625 169.359375 1.796875 169.359375 1.953125 C 169.359375 2.203125 169.285156 2.394531 169.140625 2.53125 C 168.992188 2.675781 168.820312 2.75 168.625 2.75 L 167.953125 2.6875 C 167.859375 2.726562 167.789062 2.75 167.75 2.75 C 155.300781 2.0625 143.035156 1.644531 130.953125 1.5 C 118.867188 1.351562 106.6875 1.300781 94.40625 1.34375 C 92.382812 1.34375 90.390625 1.34375 88.421875 1.34375 C 87.179688 1.34375 86.179688 1.578125 85.421875 2.046875 C 84.660156 2.515625 84.007812 3.347656 83.46875 4.546875 C 80.3125 11.734375 77.082031 18.90625 73.78125 26.0625 C 71.988281 29.96875 70.207031 33.867188 68.4375 37.765625 C 67.15625 40.609375 65.898438 43.488281 64.671875 46.40625 C 64.023438 47.84375 63.410156 49.28125 62.828125 50.71875 C 62.773438 50.851562 62.695312 51 62.59375 51.15625 C 62.5 51.550781 62.328125 51.921875 62.078125 52.265625 C 61.671875 52.597656 61.148438 52.789062 60.515625 52.84375 C 59.878906 52.90625 59.320312 52.785156 58.84375 52.484375 C 58.375 52.179688 58.242188 51.660156 58.453125 50.921875 C 58.898438 49.679688 59.390625 48.476562 59.921875 47.3125 C 64.660156 36.507812 69.425781 25.703125 74.21875 14.890625 C 75.34375 12.378906 76.476562 9.835938 77.625 7.265625 C 77.78125 6.878906 77.945312 6.460938 78.125 6.015625 C 78.53125 5.117188 78.929688 4.234375 79.328125 3.359375 C 79.710938 2.378906 79.46875 1.832031 78.59375 1.71875 C 72.3125 1.875 66.066406 2.15625 59.859375 2.5625 C 56.609375 2.738281 53.328125 2.90625 50.015625 3.0625 C 48.148438 3.101562 46.847656 3.988281 46.109375 5.71875 C 42.859375 12.738281 39.472656 19.703125 35.953125 26.609375 C 33.890625 30.679688 31.789062 34.769531 29.65625 38.875 C 28.875 40.351562 28.09375 41.832031 27.3125 43.3125 C 26.863281 44.257812 26.367188 45.144531 25.828125 45.96875 C 25.285156 46.707031 24.554688 47.160156 23.640625 47.328125 C 22.722656 47.503906 21.921875 47.457031 21.234375 47.1875 C 20.554688 46.914062 20.238281 46.488281 20.28125 45.90625 C 20.53125 44.757812 20.878906 43.671875 21.328125 42.640625 C 24.867188 33.554688 28.734375 24.632812 32.921875 15.875 C 34.398438 12.757812 35.878906 9.644531 37.359375 6.53125 C 37.765625 5.539062 37.492188 4.984375 36.546875 4.859375 C 35.609375 4.734375 34.234375 4.773438 32.421875 4.984375 C 32.378906 4.984375 32.300781 4.984375 32.1875 4.984375 C 29.019531 5.273438 25.769531 5.71875 22.4375 6.3125 C 19.113281 6.90625 16.9375 7.347656 15.90625 7.640625 C 14.875 7.878906 13.820312 8 12.75 8 C 12.675781 8.070312 12.597656 8.109375 12.515625 8.109375 C 12.421875 8.109375 12.316406 8.070312 12.203125 8 L 11.640625 8.109375 C 11.429688 8.109375 11.226562 8.03125 11.03125 7.875 C 10.832031 7.71875 10.734375 7.515625 10.734375 7.265625 C 10.773438 7.128906 10.859375 6.957031 10.984375 6.75 C 11.109375 6.550781 11.25 6.410156 11.40625 6.328125 C 15.34375 4.929688 19.363281 3.96875 23.46875 3.4375 C 28.15625 2.738281 32.84375 2.140625 37.53125 1.640625 C 39.101562 1.597656 40.210938 0.882812 40.859375 -0.5 C 42.222656 -3.300781 43.644531 -6.101562 45.125 -8.90625 C 46.894531 -12.226562 48.703125 -15.535156 50.546875 -18.828125 C 51.171875 -20.066406 51.8125 -21.300781 52.46875 -22.53125 C 52.550781 -22.644531 52.628906 -22.769531 52.703125 -22.90625 C 52.878906 -23.300781 53.09375 -23.671875 53.34375 -24.015625 C 54.570312 -25.453125 55.601562 -27.007812 56.4375 -28.6875 C 57.28125 -30.363281 58.050781 -32.085938 58.75 -33.859375 C 59.082031 -34.597656 59.410156 -35.335938 59.734375 -36.078125 C 65.691406 -49.535156 71.578125 -63.023438 77.390625 -76.546875 C 80.054688 -82.460938 82.101562 -88.5625 83.53125 -94.84375 C 84.113281 -97.101562 84.257812 -99.363281 83.96875 -101.625 C 83.675781 -102.945312 82.8125 -103.632812 81.375 -103.6875 C 79.945312 -103.75 78.210938 -103.378906 76.171875 -102.578125 C 74.128906 -101.785156 72.007812 -100.820312 69.8125 -99.6875 C 67.613281 -98.5625 65.628906 -97.453125 63.859375 -96.359375 C 62.085938 -95.273438 60.773438 -94.460938 59.921875 -93.921875 C 59.679688 -93.796875 59.515625 -93.695312 59.421875 -93.625 C 36.285156 -79.226562 15.570312 -61.941406 -2.71875 -41.765625 C -4.738281 -39.546875 -6.671875 -37.253906 -8.515625 -34.890625 C -10.367188 -32.523438 -12.070312 -30.03125 -13.625 -27.40625 C -14.789062 -25.4375 -15.71875 -23.375 -16.40625 -21.21875 C -17.257812 -17.90625 -17.019531 -15.375 -15.6875 -13.625 C -14.351562 -11.875 -12.351562 -10.703125 -9.6875 -10.109375 C -7.019531 -9.515625 -4.117188 -9.304688 -0.984375 -9.484375 C 2.140625 -9.660156 5.082031 -9.976562 7.84375 -10.4375 C 10.613281 -10.894531 12.765625 -11.347656 14.296875 -11.796875 C 16.109375 -12.253906 17.9375 -12.679688 19.78125 -13.078125 C 21.34375 -13.367188 21.773438 -13.269531 21.078125 -12.78125 C 20.390625 -12.289062 18.890625 -11.613281 16.578125 -10.75 C 14.265625 -9.882812 11.488281 -9.039062 8.25 -8.21875 C 5.007812 -7.40625 1.664062 -6.820312 -1.78125 -6.46875 C -5.238281 -6.125 -8.476562 -6.195312 -11.5 -6.6875 C -14.53125 -7.1875 -17 -8.316406 -18.90625 -10.078125 C -20.8125 -11.835938 -21.785156 -14.441406 -21.828125 -17.890625 C -21.828125 -17.984375 -21.828125 -18.070312 -21.828125 -18.15625 C -21.710938 -20.332031 -21.195312 -22.40625 -20.28125 -24.375 C -18.726562 -27.945312 -16.753906 -31.253906 -14.359375 -34.296875 C -11.828125 -37.597656 -9.179688 -40.785156 -6.421875 -43.859375 C 11.335938 -63.335938 31.335938 -80.148438 53.578125 -94.296875 C 56.203125 -95.984375 59.25 -97.820312 62.71875 -99.8125 C 66.195312 -101.8125 69.773438 -103.488281 73.453125 -104.84375 C 77.128906 -106.195312 80.566406 -106.804688 83.765625 -106.671875 C 87.316406 -106.472656 89.257812 -104.625 89.59375 -101.125 C 89.75 -99.820312 89.742188 -98.554688 89.578125 -97.328125 C 89.410156 -96.097656 89.164062 -94.863281 88.84375 -93.625 C 88.800781 -93.445312 88.757812 -93.257812 88.71875 -93.0625 C 88.0625 -90.09375 87.21875 -87.203125 86.1875 -84.390625 C 85.15625 -81.578125 84.046875 -78.789062 82.859375 -76.03125 C 72.753906 -52 62.175781 -28.203125 51.125 -4.640625 C 50.78125 -3.941406 50.460938 -3.222656 50.171875 -2.484375 C 49.679688 -1.347656 49.734375 -0.5625 50.328125 -0.125 C 50.921875 0.3125 51.914062 0.53125 53.3125 0.53125 C 54.71875 0.53125 56.363281 0.46875 58.25 0.34375 C 58.539062 0.34375 58.832031 0.304688 59.125 0.234375 C 60.351562 0.191406 61.609375 0.125 62.890625 0.03125 C 68.554688 -0.414062 74.179688 -0.71875 79.765625 -0.875 C 80.753906 -0.875 81.441406 -1.289062 81.828125 -2.125 C 82.273438 -3.019531 82.695312 -3.925781 83.09375 -4.84375 C 90.382812 -20.875 97.960938 -36.757812 105.828125 -52.5 C 113.703125 -68.238281 121.6875 -83.921875 129.78125 -99.546875 C 129.875 -99.742188 129.972656 -99.945312 130.078125 -100.15625 C 130.367188 -100.894531 130.804688 -101.507812 131.390625 -102 C 131.835938 -102.25 132.359375 -102.375 132.953125 -102.375 C 133.546875 -102.375 134.050781 -102.238281 134.46875 -101.96875 C 134.882812 -101.695312 134.96875 -101.210938 134.71875 -100.515625 C 134.675781 -100.359375 134.609375 -100.191406 134.515625 -100.015625 C 133.867188 -98.335938 133.15625 -96.679688 132.375 -95.046875 C 128.382812 -87.015625 124.359375 -79 120.296875 -71 C 118.878906 -68.144531 117.457031 -65.285156 116.03125 -62.421875 C 106.613281 -43.628906 97.382812 -24.738281 88.34375 -5.75 C 88.1875 -5.394531 88.019531 -5.046875 87.84375 -4.703125 C 87.644531 -4.304688 87.460938 -3.914062 87.296875 -3.53125 C 86.765625 -2.34375 86.734375 -1.570312 87.203125 -1.21875 C 87.671875 -0.875 88.421875 -0.757812 89.453125 -0.875 C 100.265625 -1.457031 111.28125 -1.585938 122.5 -1.265625 C 133.71875 -0.941406 144.851562 -0.488281 155.90625 0.09375 C 159.289062 0.257812 162.664062 0.429688 166.03125 0.609375 C 166.1875 0.609375 166.3125 0.609375 166.40625 0.609375 C 166.851562 0.609375 167.296875 0.644531 167.734375 0.71875 C 168.171875 0.800781 168.566406 0.988281 168.921875 1.28125 Z M 168.921875 1.28125 "/></g></g></g><g fill="#3e3e3b" fill-opacity="1"><g transform="translate(152.749136, 151.748749)"><g><path d="M 24.390625 -17.140625 C 24.921875 -16.835938 24.960938 -16.101562 24.515625 -14.9375 C 23.867188 -14.082031 23.175781 -13.285156 22.4375 -12.546875 C 21.695312 -11.804688 20.890625 -11.144531 20.015625 -10.5625 C 19.941406 -10.5625 19.90625 -10.539062 19.90625 -10.5 C 19.320312 -10.09375 18.707031 -9.742188 18.0625 -9.453125 C 12.695312 -7.523438 9.960938 -8.65625 9.859375 -12.84375 C 7.679688 -10.957031 6.222656 -9.804688 5.484375 -9.390625 C 3.710938 -8.328125 1.796875 -7.851562 -0.265625 -7.96875 C -1.796875 -8.0625 -2.832031 -8.523438 -3.375 -9.359375 C -3.925781 -10.203125 -3.878906 -11.34375 -3.234375 -12.78125 C -2.242188 -15.039062 -0.84375 -17.054688 0.96875 -18.828125 C 3.101562 -20.804688 5.472656 -22.390625 8.078125 -23.578125 C 9.460938 -24.273438 10.914062 -24.539062 12.4375 -24.375 C 13.96875 -24.289062 14.890625 -23.429688 15.203125 -21.796875 C 15.335938 -21.296875 15.210938 -20.859375 14.828125 -20.484375 C 14.335938 -20.035156 13.765625 -19.929688 13.109375 -20.171875 C 13.066406 -20.171875 13.003906 -20.179688 12.921875 -20.203125 C 12.847656 -20.234375 12.789062 -20.269531 12.75 -20.3125 C 12.09375 -21.207031 11.429688 -21.582031 10.765625 -21.4375 C 10.109375 -21.289062 9.410156 -20.992188 8.671875 -20.546875 C 5.222656 -18.523438 2.65625 -15.710938 0.96875 -12.109375 C 0.882812 -11.953125 0.832031 -11.773438 0.8125 -11.578125 C 0.789062 -11.390625 0.84375 -11.238281 0.96875 -11.125 C 1.375 -11 1.820312 -11.03125 2.3125 -11.21875 C 2.8125 -11.40625 3.304688 -11.679688 3.796875 -12.046875 C 4.296875 -12.421875 4.710938 -12.734375 5.046875 -12.984375 C 5.085938 -13.046875 5.109375 -13.078125 5.109375 -13.078125 C 6.742188 -14.453125 8.347656 -15.851562 9.921875 -17.28125 C 10.617188 -18.019531 11.484375 -18.4375 12.515625 -18.53125 C 13.992188 -18.53125 14.609375 -17.867188 14.359375 -16.546875 C 14.222656 -16.054688 14.078125 -15.5625 13.921875 -15.0625 C 13.335938 -12.9375 13.3125 -11.6875 13.84375 -11.3125 C 14.382812 -10.945312 15.210938 -10.945312 16.328125 -11.3125 C 17.441406 -11.6875 18.550781 -12.394531 19.65625 -13.4375 C 20.769531 -14.476562 21.707031 -15.429688 22.46875 -16.296875 C 23.226562 -17.160156 23.867188 -17.441406 24.390625 -17.140625 Z M 24.390625 -17.140625 "/></g></g></g><g fill="#3e3e3b" fill-opacity="1"><g transform="translate(175.044812, 151.748749)"><g><path d="M 26.640625 -16.78125 C 26.992188 -16.332031 26.539062 -15.515625 25.28125 -14.328125 C 24.03125 -13.140625 22.695312 -12.140625 21.28125 -11.328125 C 19.875 -10.523438 18.238281 -9.71875 16.375 -8.90625 C 15.144531 -8.375 13.832031 -8.195312 12.4375 -8.375 C 11.050781 -8.550781 10.359375 -9.390625 10.359375 -10.890625 C 10.359375 -12.398438 10.707031 -13.894531 11.40625 -15.375 C 12.09375 -16.894531 12.238281 -17.675781 11.84375 -17.71875 C 11.457031 -17.769531 10.648438 -17.398438 9.421875 -16.609375 C 6.210938 -14.503906 3.226562 -12.097656 0.46875 -9.390625 C -0.269531 -8.484375 -1.210938 -7.988281 -2.359375 -7.90625 C -2.941406 -7.90625 -3.394531 -8.085938 -3.71875 -8.453125 C -4.039062 -8.828125 -4.078125 -9.226562 -3.828125 -9.65625 C -1.859375 -13.3125 0.132812 -16.921875 2.15625 -20.484375 C 2.601562 -21.222656 3.273438 -21.679688 4.171875 -21.859375 C 4.546875 -21.921875 4.894531 -21.800781 5.21875 -21.5 C 5.550781 -21.195312 5.71875 -20.859375 5.71875 -20.484375 C 5.675781 -20.117188 5.53125 -19.691406 5.28125 -19.203125 C 5.164062 -18.910156 5.054688 -18.628906 4.953125 -18.359375 C 4.859375 -18.085938 4.828125 -17.863281 4.859375 -17.6875 C 4.890625 -17.507812 5.03125 -17.453125 5.28125 -17.515625 C 5.613281 -17.703125 5.945312 -17.894531 6.28125 -18.09375 C 7.132812 -18.582031 7.957031 -19.050781 8.75 -19.5 C 9.4375 -19.90625 10.160156 -20.265625 10.921875 -20.578125 C 11.691406 -20.890625 12.488281 -21.101562 13.3125 -21.21875 C 14.65625 -21.3125 15.609375 -21.007812 16.171875 -20.3125 C 16.734375 -19.613281 16.800781 -18.648438 16.375 -17.421875 C 15.925781 -16.296875 15.457031 -15.1875 14.96875 -14.09375 C 14.363281 -13.0625 14.257812 -12.273438 14.65625 -11.734375 C 15.0625 -11.203125 16.9375 -11.820312 20.28125 -13.59375 L 22.796875 -15.0625 C 25.171875 -16.59375 26.453125 -17.164062 26.640625 -16.78125 Z M 26.640625 -16.78125 "/></g></g></g><g fill="#3e3e3b" fill-opacity="1"><g transform="translate(199.694481, 151.748749)"><g><path d="M 26.640625 -16.78125 C 26.992188 -16.332031 26.539062 -15.515625 25.28125 -14.328125 C 24.03125 -13.140625 22.695312 -12.140625 21.28125 -11.328125 C 19.875 -10.523438 18.238281 -9.71875 16.375 -8.90625 C 15.144531 -8.375 13.832031 -8.195312 12.4375 -8.375 C 11.050781 -8.550781 10.359375 -9.390625 10.359375 -10.890625 C 10.359375 -12.398438 10.707031 -13.894531 11.40625 -15.375 C 12.09375 -16.894531 12.238281 -17.675781 11.84375 -17.71875 C 11.457031 -17.769531 10.648438 -17.398438 9.421875 -16.609375 C 6.210938 -14.503906 3.226562 -12.097656 0.46875 -9.390625 C -0.269531 -8.484375 -1.210938 -7.988281 -2.359375 -7.90625 C -2.941406 -7.90625 -3.394531 -8.085938 -3.71875 -8.453125 C -4.039062 -8.828125 -4.078125 -9.226562 -3.828125 -9.65625 C -1.859375 -13.3125 0.132812 -16.921875 2.15625 -20.484375 C 2.601562 -21.222656 3.273438 -21.679688 4.171875 -21.859375 C 4.546875 -21.921875 4.894531 -21.800781 5.21875 -21.5 C 5.550781 -21.195312 5.71875 -20.859375 5.71875 -20.484375 C 5.675781 -20.117188 5.53125 -19.691406 5.28125 -19.203125 C 5.164062 -18.910156 5.054688 -18.628906 4.953125 -18.359375 C 4.859375 -18.085938 4.828125 -17.863281 4.859375 -17.6875 C 4.890625 -17.507812 5.03125 -17.453125 5.28125 -17.515625 C 5.613281 -17.703125 5.945312 -17.894531 6.28125 -18.09375 C 7.132812 -18.582031 7.957031 -19.050781 8.75 -19.5 C 9.4375 -19.90625 10.160156 -20.265625 10.921875 -20.578125 C 11.691406 -20.890625 12.488281 -21.101562 13.3125 -21.21875 C 14.65625 -21.3125 15.609375 -21.007812 16.171875 -20.3125 C 16.734375 -19.613281 16.800781 -18.648438 16.375 -17.421875 C 15.925781 -16.296875 15.457031 -15.1875 14.96875 -14.09375 C 14.363281 -13.0625 14.257812 -12.273438 14.65625 -11.734375 C 15.0625 -11.203125 16.9375 -11.820312 20.28125 -13.59375 L 22.796875 -15.0625 C 25.171875 -16.59375 26.453125 -17.164062 26.640625 -16.78125 Z M 26.640625 -16.78125 "/></g></g></g><g fill="#3e3e3b" fill-opacity="1"><g transform="translate(224.344149, 151.748749)"><g><path d="M 24.390625 -17.140625 C 24.921875 -16.835938 24.960938 -16.101562 24.515625 -14.9375 C 23.867188 -14.082031 23.175781 -13.285156 22.4375 -12.546875 C 21.695312 -11.804688 20.890625 -11.144531 20.015625 -10.5625 C 19.941406 -10.5625 19.90625 -10.539062 19.90625 -10.5 C 19.320312 -10.09375 18.707031 -9.742188 18.0625 -9.453125 C 12.695312 -7.523438 9.960938 -8.65625 9.859375 -12.84375 C 7.679688 -10.957031 6.222656 -9.804688 5.484375 -9.390625 C 3.710938 -8.328125 1.796875 -7.851562 -0.265625 -7.96875 C -1.796875 -8.0625 -2.832031 -8.523438 -3.375 -9.359375 C -3.925781 -10.203125 -3.878906 -11.34375 -3.234375 -12.78125 C -2.242188 -15.039062 -0.84375 -17.054688 0.96875 -18.828125 C 3.101562 -20.804688 5.472656 -22.390625 8.078125 -23.578125 C 9.460938 -24.273438 10.914062 -24.539062 12.4375 -24.375 C 13.96875 -24.289062 14.890625 -23.429688 15.203125 -21.796875 C 15.335938 -21.296875 15.210938 -20.859375 14.828125 -20.484375 C 14.335938 -20.035156 13.765625 -19.929688 13.109375 -20.171875 C 13.066406 -20.171875 13.003906 -20.179688 12.921875 -20.203125 C 12.847656 -20.234375 12.789062 -20.269531 12.75 -20.3125 C 12.09375 -21.207031 11.429688 -21.582031 10.765625 -21.4375 C 10.109375 -21.289062 9.410156 -20.992188 8.671875 -20.546875 C 5.222656 -18.523438 2.65625 -15.710938 0.96875 -12.109375 C 0.882812 -11.953125 0.832031 -11.773438 0.8125 -11.578125 C 0.789062 -11.390625 0.84375 -11.238281 0.96875 -11.125 C 1.375 -11 1.820312 -11.03125 2.3125 -11.21875 C 2.8125 -11.40625 3.304688 -11.679688 3.796875 -12.046875 C 4.296875 -12.421875 4.710938 -12.734375 5.046875 -12.984375 C 5.085938 -13.046875 5.109375 -13.078125 5.109375 -13.078125 C 6.742188 -14.453125 8.347656 -15.851562 9.921875 -17.28125 C 10.617188 -18.019531 11.484375 -18.4375 12.515625 -18.53125 C 13.992188 -18.53125 14.609375 -17.867188 14.359375 -16.546875 C 14.222656 -16.054688 14.078125 -15.5625 13.921875 -15.0625 C 13.335938 -12.9375 13.3125 -11.6875 13.84375 -11.3125 C 14.382812 -10.945312 15.210938 -10.945312 16.328125 -11.3125 C 17.441406 -11.6875 18.550781 -12.394531 19.65625 -13.4375 C 20.769531 -14.476562 21.707031 -15.429688 22.46875 -16.296875 C 23.226562 -17.160156 23.867188 -17.441406 24.390625 -17.140625 Z M 24.390625 -17.140625 "/></g></g></g><g fill="#3e3e3b" fill-opacity="1"><g transform="translate(246.639826, 151.748749)"><g><path d="M 27.3125 -15.671875 C 26.90625 -15.316406 26.476562 -14.992188 26.03125 -14.703125 C 24.59375 -13.796875 23.296875 -13.082031 22.140625 -12.5625 C 20.984375 -12.050781 19.625 -11.53125 18.0625 -11 C 15.726562 -10.300781 14.226562 -10.457031 13.5625 -11.46875 C 12.90625 -12.476562 12.800781 -13.878906 13.25 -15.671875 C 13.875 -18.222656 14.238281 -20.09375 14.34375 -21.28125 C 14.445312 -22.476562 14.054688 -22.890625 13.171875 -22.515625 C 12.285156 -22.140625 10.675781 -20.910156 8.34375 -18.828125 C 5.09375 -16.023438 2.3125 -12.820312 0 -9.21875 C -0.289062 -8.71875 -0.648438 -8.3125 -1.078125 -8 C -1.503906 -7.6875 -2.03125 -7.53125 -2.65625 -7.53125 C -3.257812 -7.53125 -3.695312 -7.6875 -3.96875 -8 C -4.238281 -8.3125 -4.25 -8.738281 -4 -9.28125 C -2.675781 -12.195312 -1.320312 -15.085938 0.0625 -17.953125 C 2.4375 -22.929688 4.78125 -27.890625 7.09375 -32.828125 C 8.820312 -36.523438 10.523438 -40.222656 12.203125 -43.921875 C 13.234375 -46.097656 14.242188 -48.273438 15.234375 -50.453125 C 15.328125 -50.628906 15.425781 -50.816406 15.53125 -51.015625 C 15.625 -51.265625 15.734375 -51.507812 15.859375 -51.75 C 15.984375 -52 16.125 -52.269531 16.28125 -52.5625 C 16.414062 -52.8125 16.664062 -53.015625 17.03125 -53.171875 C 17.40625 -53.328125 17.773438 -53.425781 18.140625 -53.46875 C 18.515625 -53.519531 18.800781 -53.5 19 -53.40625 C 19.289062 -53.207031 19.453125 -52.992188 19.484375 -52.765625 C 19.523438 -52.546875 19.488281 -52.3125 19.375 -52.0625 C 19.320312 -52.019531 19.296875 -51.941406 19.296875 -51.828125 C 18.847656 -50.503906 18.378906 -49.222656 17.890625 -47.984375 C 15.046875 -41.128906 11.941406 -34.375 8.578125 -27.71875 C 8.328125 -27.257812 8.035156 -26.71875 7.703125 -26.09375 C 7.210938 -25.195312 6.753906 -24.316406 6.328125 -23.453125 C 5.898438 -22.585938 5.757812 -22.007812 5.90625 -21.71875 C 6.050781 -21.425781 6.71875 -21.648438 7.90625 -22.390625 C 8.257812 -22.640625 8.582031 -22.890625 8.875 -23.140625 C 9.820312 -23.765625 10.753906 -24.359375 11.671875 -24.921875 C 12.472656 -25.460938 13.367188 -25.753906 14.359375 -25.796875 C 16.710938 -25.953125 18.035156 -24.882812 18.328125 -22.59375 C 18.441406 -21.675781 18.40625 -20.769531 18.21875 -19.875 C 18.039062 -18.976562 17.832031 -18.09375 17.59375 -17.21875 C 17.539062 -16.96875 17.492188 -16.722656 17.453125 -16.484375 C 17.046875 -14.953125 17.148438 -14.070312 17.765625 -13.84375 C 18.390625 -13.625 19.253906 -13.75 20.359375 -14.21875 C 21.472656 -14.695312 22.601562 -15.269531 23.75 -15.9375 C 24.53125 -16.34375 25.21875 -16.691406 25.8125 -16.984375 C 26.40625 -17.273438 26.847656 -17.398438 27.140625 -17.359375 C 27.679688 -17.265625 27.925781 -17.039062 27.875 -16.6875 C 27.832031 -16.34375 27.644531 -16.003906 27.3125 -15.671875 Z M 27.3125 -15.671875 "/></g></g></g><g fill="#3e3e3b" fill-opacity="1"><g transform="translate(272.298348, 151.748749)"><g/></g></g><g fill="#3e3e3b" fill-opacity="1"><g transform="translate(297.721466, 151.748749)"><g><path d="M 147.609375 -81.15625 C 147.453125 -80.75 147.296875 -80.34375 147.140625 -79.9375 C 145.566406 -75.851562 143.875 -71.84375 142.0625 -67.90625 C 132.6875 -48.414062 122.617188 -29.566406 111.859375 -11.359375 C 108.359375 -5.492188 104.78125 0.273438 101.125 5.953125 C 97.46875 11.628906 93.789062 17.28125 90.09375 22.90625 C 89.21875 24.226562 88.332031 25.550781 87.4375 26.875 C 87.394531 26.976562 87.347656 27.054688 87.296875 27.109375 C 87.097656 27.515625 86.863281 27.847656 86.59375 28.109375 C 86.320312 28.378906 85.960938 28.515625 85.515625 28.515625 C 85.316406 28.515625 85.101562 28.460938 84.875 28.359375 C 84.65625 28.265625 84.476562 28.140625 84.34375 27.984375 C 84.226562 27.847656 84.148438 27.628906 84.109375 27.328125 C 84.066406 27.023438 84.085938 26.785156 84.171875 26.609375 C 84.773438 25.304688 85.445312 24.070312 86.1875 22.90625 C 87.851562 20.1875 89.523438 17.472656 91.203125 14.765625 C 94.367188 9.722656 97.472656 4.664062 100.515625 -0.40625 C 107.285156 -11.707031 113.753906 -23.242188 119.921875 -35.015625 C 126.085938 -46.785156 132.109375 -58.675781 137.984375 -70.6875 C 140.335938 -75.332031 142.273438 -80.300781 143.796875 -85.59375 C 144.117188 -86.507812 144.363281 -87.457031 144.53125 -88.4375 C 144.695312 -89.425781 144.78125 -90.453125 144.78125 -91.515625 C 144.625 -93.773438 143.660156 -94.757812 141.890625 -94.46875 C 140.316406 -94.15625 138.835938 -93.660156 137.453125 -92.984375 C 134.148438 -91.390625 130.894531 -89.628906 127.6875 -87.703125 C 110.46875 -77.253906 94.785156 -64.285156 80.640625 -48.796875 C 80.441406 -48.546875 80.21875 -48.300781 79.96875 -48.0625 C 75.082031 -42.75 70.234375 -37.390625 65.421875 -31.984375 C 60.617188 -26.578125 55.953125 -21.015625 51.421875 -15.296875 C 50.484375 -14.109375 49.5 -13 48.46875 -11.96875 C 47.363281 -10.820312 46.050781 -10.375 44.53125 -10.625 C 43.875 -10.71875 43.335938 -11.035156 42.921875 -11.578125 C 42.515625 -12.128906 42.351562 -12.773438 42.4375 -13.515625 C 42.75 -15.535156 43.195312 -17.488281 43.78125 -19.375 C 45.601562 -25.332031 47.535156 -31.21875 49.578125 -37.03125 C 49.867188 -37.925781 50.132812 -38.785156 50.375 -39.609375 C 50.914062 -41.785156 51.679688 -43.796875 52.671875 -45.640625 C 52.671875 -45.679688 52.644531 -45.703125 52.59375 -45.703125 C 52.351562 -45.835938 52.109375 -45.941406 51.859375 -46.015625 C 51.609375 -46.097656 51.363281 -46.015625 51.125 -45.765625 C 50.21875 -44.785156 49.351562 -43.753906 48.53125 -42.671875 C 41.71875 -33.441406 34.96875 -24.128906 28.28125 -14.734375 C 21.601562 -5.335938 15.078125 4.210938 8.703125 13.921875 C 8.171875 14.859375 7.570312 15.625 6.90625 16.21875 C 6.25 16.820312 5.367188 17.019531 4.265625 16.8125 C 3.773438 16.675781 3.394531 16.375 3.125 15.90625 C 2.851562 15.4375 2.796875 14.976562 2.953125 14.53125 C 3.535156 13.207031 4.175781 11.953125 4.875 10.765625 C 6.84375 7.359375 8.796875 3.945312 10.734375 0.53125 C 14.609375 -6.207031 18.453125 -12.988281 22.265625 -19.8125 C 28.179688 -30.257812 33.460938 -41.253906 38.109375 -52.796875 C 39.921875 -57.234375 41.398438 -61.898438 42.546875 -66.796875 C 43.171875 -69.390625 43.4375 -72.097656 43.34375 -74.921875 C 43.050781 -79.453125 41.550781 -82.691406 38.84375 -84.640625 C 36.132812 -86.597656 32.570312 -87.523438 28.15625 -87.421875 C 23.738281 -87.316406 18.835938 -86.410156 13.453125 -84.703125 C 8.066406 -83.003906 2.550781 -80.753906 -3.09375 -77.953125 C -8.738281 -75.148438 -14.1875 -72.054688 -19.4375 -68.671875 C -24.6875 -65.285156 -29.351562 -61.851562 -33.4375 -58.375 C -37.53125 -54.90625 -40.722656 -51.644531 -43.015625 -48.59375 C -45.410156 -45.226562 -47.453125 -41.53125 -49.140625 -37.5 C -49.984375 -35.570312 -50.472656 -33.472656 -50.609375 -31.203125 C -50.660156 -30.753906 -50.882812 -30.414062 -51.28125 -30.1875 C -51.6875 -29.96875 -52.132812 -29.90625 -52.625 -30 C -53.414062 -30.25 -53.910156 -30.863281 -54.109375 -31.84375 C -54.242188 -33.144531 -54.144531 -34.332031 -53.8125 -35.40625 C -53.070312 -38.125 -52.082031 -40.691406 -50.84375 -43.109375 C -48.582031 -47.347656 -45.140625 -51.675781 -40.515625 -56.09375 C -35.898438 -60.507812 -30.519531 -64.738281 -24.375 -68.78125 C -18.238281 -72.832031 -11.828125 -76.441406 -5.140625 -79.609375 C 1.535156 -82.785156 8.066406 -85.253906 14.453125 -87.015625 C 20.847656 -88.773438 26.609375 -89.566406 31.734375 -89.390625 C 36.859375 -89.210938 40.898438 -87.804688 43.859375 -85.171875 C 46.816406 -82.535156 48.25 -78.378906 48.15625 -72.703125 C 48 -69.054688 47.425781 -65.582031 46.4375 -62.28125 C 45.007812 -57.4375 43.359375 -52.753906 41.484375 -48.234375 C 39.609375 -43.722656 37.617188 -39.300781 35.515625 -34.96875 C 34.859375 -33.625 34.710938 -32.96875 35.078125 -33 C 35.453125 -33.039062 36.015625 -33.550781 36.765625 -34.53125 C 39.429688 -38.082031 42.097656 -41.582031 44.765625 -45.03125 C 46.578125 -47.34375 48.425781 -49.609375 50.3125 -51.828125 C 50.5625 -52.140625 50.804688 -52.441406 51.046875 -52.734375 C 52.128906 -54.054688 53.429688 -54.941406 54.953125 -55.390625 C 56.097656 -55.640625 57.0625 -55.378906 57.84375 -54.609375 C 58.625 -53.847656 58.894531 -52.707031 58.65625 -51.1875 C 58.601562 -51.03125 58.554688 -50.875 58.515625 -50.71875 C 58.109375 -48.738281 57.640625 -46.820312 57.109375 -44.96875 C 55.671875 -40.414062 54.191406 -35.894531 52.671875 -31.40625 C 51.929688 -29.101562 51.191406 -26.757812 50.453125 -24.375 C 50.285156 -24.039062 50.054688 -23.425781 49.765625 -22.53125 C 49.472656 -21.75 49.191406 -20.972656 48.921875 -20.203125 C 48.660156 -19.441406 48.453125 -18.863281 48.296875 -18.46875 C 48.492188 -18.625 50.320312 -20.675781 53.78125 -24.625 C 58.457031 -30 64.003906 -36.296875 70.421875 -43.515625 C 76.835938 -50.734375 81.867188 -56.25 85.515625 -60.0625 C 92.265625 -66.851562 99.378906 -73.035156 106.859375 -78.609375 C 114.335938 -84.179688 122.085938 -89.222656 130.109375 -93.734375 C 132.085938 -94.765625 134.117188 -95.691406 136.203125 -96.515625 C 136.648438 -96.671875 137.085938 -96.851562 137.515625 -97.0625 C 139.484375 -97.84375 141.578125 -98.132812 143.796875 -97.9375 C 148.054688 -97.53125 150.007812 -94.835938 149.65625 -89.859375 C 149.40625 -86.765625 148.722656 -83.863281 147.609375 -81.15625 Z M 52.4375 -45.90625 C 52.539062 -45.8125 52.617188 -45.742188 52.671875 -45.703125 C 52.671875 -45.703125 52.671875 -45.679688 52.671875 -45.640625 C 52.710938 -45.640625 52.734375 -45.660156 52.734375 -45.703125 C 52.640625 -45.742188 52.539062 -45.8125 52.4375 -45.90625 Z M 52.4375 -45.90625 "/></g></g></g><g fill="#3e3e3b" fill-opacity="1"><g transform="translate(424.467155, 151.748749)"><g><path d="M 24.25 -17.515625 C 24.363281 -17.515625 24.492188 -17.488281 24.640625 -17.4375 C 24.785156 -17.382812 24.898438 -17.3125 24.984375 -17.21875 C 25.296875 -16.925781 25.332031 -16.578125 25.09375 -16.171875 C 24.78125 -15.835938 24.476562 -15.546875 24.1875 -15.296875 C 22.457031 -13.710938 20.535156 -12.378906 18.421875 -11.296875 C 15.109375 -9.617188 11.457031 -8.753906 7.46875 -8.703125 C 5.988281 -8.660156 4.460938 -8.910156 2.890625 -9.453125 C 0.0234375 -10.566406 -1.140625 -12.640625 -0.609375 -15.671875 C 0.046875 -18.472656 1.628906 -20.796875 4.140625 -22.640625 C 6.648438 -24.492188 9.335938 -25.296875 12.203125 -25.046875 C 12.742188 -24.960938 13.285156 -24.84375 13.828125 -24.6875 C 14.316406 -24.476562 14.679688 -24.175781 14.921875 -23.78125 C 15.171875 -23.394531 15.195312 -23.078125 15 -22.828125 C 14.457031 -22.242188 13.84375 -22.097656 13.15625 -22.390625 C 12.125 -22.847656 11.175781 -22.972656 10.3125 -22.765625 C 9.445312 -22.566406 8.578125 -22.097656 7.703125 -21.359375 C 6.847656 -20.703125 5.925781 -19.757812 4.9375 -18.53125 C 3.957031 -17.300781 3.332031 -16.054688 3.0625 -14.796875 C 2.789062 -13.546875 3.347656 -12.523438 4.734375 -11.734375 C 6.304688 -11.035156 7.910156 -10.867188 9.546875 -11.234375 C 13.628906 -12.066406 17.421875 -13.613281 20.921875 -15.875 C 21.234375 -16.03125 21.515625 -16.207031 21.765625 -16.40625 C 22.140625 -16.695312 22.519531 -16.9375 22.90625 -17.125 C 23.300781 -17.320312 23.75 -17.453125 24.25 -17.515625 Z M 24.25 -17.515625 "/></g></g></g><g fill="#3e3e3b" fill-opacity="1"><g transform="translate(446.897345, 151.748749)"><g><path d="M 125.40625 -52.359375 C 125.15625 -52.316406 124.882812 -52.316406 124.59375 -52.359375 C 124.300781 -52.410156 124.035156 -52.535156 123.796875 -52.734375 C 123.503906 -53.023438 123.378906 -53.289062 123.421875 -53.53125 C 123.460938 -53.78125 123.5625 -54.007812 123.71875 -54.21875 C 126.070312 -58 128.113281 -61.96875 129.84375 -66.125 C 130.945312 -68.675781 131.910156 -71.304688 132.734375 -74.015625 C 133.273438 -75.703125 133.320312 -77.507812 132.875 -79.4375 C 132.445312 -81.5 131.210938 -82.957031 129.171875 -83.8125 C 127.597656 -84.394531 125.992188 -84.707031 124.359375 -84.75 C 124.066406 -84.75 123.773438 -84.75 123.484375 -84.75 C 120.035156 -84.613281 116.6875 -84.117188 113.4375 -83.265625 C 107.8125 -81.898438 102.367188 -80.203125 97.109375 -78.171875 C 91.847656 -76.140625 86.707031 -73.925781 81.6875 -71.53125 C 59.644531 -60.8125 39.914062 -47.269531 22.5 -30.90625 C 18.101562 -26.957031 14.257812 -22.539062 10.96875 -17.65625 C 9.820312 -15.925781 8.8125 -14.097656 7.9375 -12.171875 C 7.445312 -11.097656 7.097656 -9.941406 6.890625 -8.703125 C 6.148438 -4.710938 7.878906 -1.734375 12.078125 0.234375 C 15.617188 1.867188 19.21875 2.789062 22.875 3 C 25.738281 3.238281 28.53125 3.359375 31.25 3.359375 C 32.519531 3.359375 33.75 3.300781 34.9375 3.1875 C 52.207031 3.007812 68.507812 0.769531 83.84375 -3.53125 C 84.082031 -3.625 84.328125 -3.691406 84.578125 -3.734375 C 85.609375 -4.085938 86.695312 -4.367188 87.84375 -4.578125 C 88.132812 -4.617188 88.617188 -4.660156 89.296875 -4.703125 C 89.984375 -4.753906 90.632812 -4.71875 91.25 -4.59375 C 91.875 -4.46875 92.265625 -4.179688 92.421875 -3.734375 C 92.460938 -3.484375 92.421875 -3.296875 92.296875 -3.171875 C 92.171875 -3.054688 91.988281 -2.972656 91.75 -2.921875 C 90.800781 -2.679688 89.867188 -2.4375 88.953125 -2.1875 C 86.171875 -1.445312 83.398438 -0.726562 80.640625 -0.03125 C 65.109375 3.957031 48.976562 5.894531 32.25 5.78125 C 28.800781 5.78125 25.347656 5.710938 21.890625 5.578125 C 18.015625 5.421875 14.125 4.601562 10.21875 3.125 C 2.46875 0.125 -0.242188 -4.828125 2.078125 -11.734375 C 3.023438 -14.492188 4.363281 -17.039062 6.09375 -19.375 C 8.488281 -22.820312 11.140625 -26.023438 14.046875 -28.984375 C 16.960938 -31.941406 20.003906 -34.800781 23.171875 -37.5625 C 37.273438 -49.988281 52.789062 -60.660156 69.71875 -69.578125 C 74.894531 -72.296875 80.164062 -74.820312 85.53125 -77.15625 C 90.90625 -79.5 96.453125 -81.570312 102.171875 -83.375 C 106.960938 -84.894531 111.894531 -86.046875 116.96875 -86.828125 C 119.007812 -87.117188 121.035156 -87.265625 123.046875 -87.265625 C 124.367188 -87.265625 125.707031 -87.222656 127.0625 -87.140625 C 128.625 -86.984375 130.191406 -86.65625 131.765625 -86.15625 C 136.023438 -84.632812 138.195312 -81.820312 138.28125 -77.71875 C 138.28125 -75.90625 138.035156 -74.15625 137.546875 -72.46875 C 136.515625 -69.21875 135.25 -66.085938 133.75 -63.078125 C 132.25 -60.078125 130.632812 -57.144531 128.90625 -54.28125 C 128.414062 -53.289062 127.617188 -52.648438 126.515625 -52.359375 C 126.179688 -52.316406 125.867188 -52.316406 125.578125 -52.359375 Z M 125.40625 -52.359375 "/></g></g></g><g fill="#3e3e3b" fill-opacity="1"><g transform="translate(542.704851, 151.748749)"><g><path d="M 0.84375 -5.953125 C -1.289062 -5.953125 -2.359375 -7.0625 -2.359375 -9.28125 C -2.359375 -11.988281 -0.597656 -16.773438 2.921875 -23.640625 C 3.054688 -23.929688 3.304688 -24.078125 3.671875 -24.078125 C 5.078125 -24.078125 5.78125 -23.515625 5.78125 -22.390625 C 5.78125 -21.992188 5.660156 -21.503906 5.421875 -20.921875 C 5.328125 -20.765625 4.148438 -17.804688 1.890625 -12.046875 C 1.523438 -11.097656 1.34375 -10.398438 1.34375 -9.953125 C 1.34375 -9.460938 1.566406 -9.21875 2.015625 -9.21875 C 3.648438 -9.21875 7.941406 -13.285156 14.890625 -21.421875 C 15.796875 -22.523438 16.6875 -23.078125 17.5625 -23.078125 C 18.832031 -23.078125 19.46875 -22.601562 19.46875 -21.65625 C 19.46875 -21.300781 19.078125 -19.945312 18.296875 -17.59375 C 17.222656 -14.382812 16.6875 -12.535156 16.6875 -12.046875 C 16.6875 -11.304688 16.929688 -10.9375 17.421875 -10.9375 C 18.648438 -10.9375 22.25 -13.128906 28.21875 -17.515625 C 28.550781 -17.804688 28.84375 -17.953125 29.09375 -17.953125 C 29.65625 -17.953125 29.9375 -17.484375 29.9375 -16.546875 C 29.9375 -16.296875 29.859375 -16.09375 29.703125 -15.9375 C 26.535156 -13.226562 23.84375 -11.164062 21.625 -9.75 C 19.601562 -8.445312 17.8125 -7.796875 16.25 -7.796875 L 15.765625 -7.796875 C 13.460938 -8.296875 12.3125 -10.101562 12.3125 -13.21875 C 9.84375 -11.039062 7.796875 -9.285156 6.171875 -7.953125 C 4.546875 -6.617188 2.769531 -5.953125 0.84375 -5.953125 Z M 0.84375 -5.953125 "/></g></g></g><g fill="#3e3e3b" fill-opacity="1"><g transform="translate(570.347459, 151.748749)"><g><path d="M 16.28125 -16.046875 C 17.019531 -16.785156 17.632812 -17.195312 18.125 -17.28125 C 18.613281 -17.375 18.929688 -17.296875 19.078125 -17.046875 C 19.222656 -16.804688 19.128906 -16.472656 18.796875 -16.046875 C 16.828125 -13.671875 14.617188 -11.617188 12.171875 -9.890625 C 9.734375 -8.160156 7.21875 -7.160156 4.625 -6.890625 C 2.03125 -6.617188 0.46875 -8.03125 -0.0625 -11.125 C -0.46875 -14.195312 1.390625 -20.453125 5.515625 -29.890625 C 9.640625 -39.335938 12.898438 -47.078125 15.296875 -53.109375 C 15.503906 -53.640625 15.804688 -54.109375 16.203125 -54.515625 C 16.742188 -55.054688 17.382812 -55.179688 18.125 -54.890625 C 18.375 -54.773438 18.617188 -54.59375 18.859375 -54.34375 C 19.109375 -54.101562 19.191406 -53.664062 19.109375 -53.03125 C 8.492188 -27.875 3.351562 -14.195312 3.6875 -12 C 4.03125 -9.800781 5.453125 -9.257812 7.953125 -10.375 C 10.453125 -11.488281 12.378906 -12.617188 13.734375 -13.765625 C 15.085938 -14.921875 15.9375 -15.679688 16.28125 -16.046875 Z M 16.28125 -16.046875 "/></g></g></g><g fill="#3e3e3b" fill-opacity="1"><g transform="translate(587.128068, 151.748749)"><g><path d="M 16.28125 -16.046875 C 17.019531 -16.785156 17.632812 -17.195312 18.125 -17.28125 C 18.613281 -17.375 18.929688 -17.296875 19.078125 -17.046875 C 19.222656 -16.804688 19.128906 -16.472656 18.796875 -16.046875 C 16.828125 -13.671875 14.617188 -11.617188 12.171875 -9.890625 C 9.734375 -8.160156 7.21875 -7.160156 4.625 -6.890625 C 2.03125 -6.617188 0.46875 -8.03125 -0.0625 -11.125 C -0.46875 -14.195312 1.390625 -20.453125 5.515625 -29.890625 C 9.640625 -39.335938 12.898438 -47.078125 15.296875 -53.109375 C 15.503906 -53.640625 15.804688 -54.109375 16.203125 -54.515625 C 16.742188 -55.054688 17.382812 -55.179688 18.125 -54.890625 C 18.375 -54.773438 18.617188 -54.59375 18.859375 -54.34375 C 19.109375 -54.101562 19.191406 -53.664062 19.109375 -53.03125 C 8.492188 -27.875 3.351562 -14.195312 3.6875 -12 C 4.03125 -9.800781 5.453125 -9.257812 7.953125 -10.375 C 10.453125 -11.488281 12.378906 -12.617188 13.734375 -13.765625 C 15.085938 -14.921875 15.9375 -15.679688 16.28125 -16.046875 Z M 16.28125 -16.046875 "/></g></g></g><g fill="#3e3e3b" fill-opacity="1"><g transform="translate(603.908677, 151.748749)"><g><path d="M 5.34375 -7.96875 L 5.25 -7.96875 C 2 -8.007812 -0.140625 -8.726562 -1.171875 -10.125 C -2.203125 -11.53125 -2.160156 -13.398438 -1.046875 -15.734375 C -0.0976562 -17.503906 1.085938 -19.050781 2.515625 -20.375 C 3.015625 -20.820312 3.519531 -21.179688 4.03125 -21.453125 C 4.550781 -21.722656 5.132812 -21.859375 5.78125 -21.859375 C 6.164062 -21.921875 6.601562 -21.851562 7.09375 -21.65625 C 7.25 -21.613281 7.40625 -21.554688 7.5625 -21.484375 C 7.945312 -21.554688 8.316406 -21.679688 8.671875 -21.859375 C 8.765625 -21.921875 8.890625 -21.976562 9.046875 -22.03125 C 9.785156 -22.320312 10.570312 -22.441406 11.40625 -22.390625 C 11.738281 -22.390625 12.082031 -22.390625 12.4375 -22.390625 C 13.757812 -22.191406 14.753906 -21.640625 15.421875 -20.734375 C 16.097656 -19.828125 16.335938 -18.722656 16.140625 -17.421875 C 16.023438 -16.640625 15.78125 -15.898438 15.40625 -15.203125 C 12.820312 -10.578125 9.535156 -8.164062 5.546875 -7.96875 Z M 10.65625 -20.015625 C 8.882812 -20.078125 7.3125 -19.5625 5.9375 -18.46875 C 4.5625 -17.382812 3.535156 -16.132812 2.859375 -14.71875 C 2.179688 -13.3125 1.992188 -12.15625 2.296875 -11.25 C 2.597656 -10.34375 3.535156 -10.09375 5.109375 -10.5 C 6.878906 -11.03125 8.441406 -12.035156 9.796875 -13.515625 C 11.160156 -14.992188 11.992188 -16.398438 12.296875 -17.734375 C 12.597656 -19.066406 12.050781 -19.828125 10.65625 -20.015625 Z M 10.65625 -20.015625 "/></g></g></g><g fill="#3e3e3b" fill-opacity="1"><g transform="translate(621.765396, 151.748749)"><g><path d="M 0.84375 -5.953125 C -1.289062 -5.953125 -2.359375 -7.0625 -2.359375 -9.28125 C -2.359375 -11.988281 -0.597656 -16.773438 2.921875 -23.640625 C 3.054688 -23.929688 3.304688 -24.078125 3.671875 -24.078125 C 5.078125 -24.078125 5.78125 -23.515625 5.78125 -22.390625 C 5.78125 -21.992188 5.660156 -21.503906 5.421875 -20.921875 C 5.328125 -20.765625 4.148438 -17.804688 1.890625 -12.046875 C 1.523438 -11.097656 1.34375 -10.398438 1.34375 -9.953125 C 1.34375 -9.460938 1.566406 -9.21875 2.015625 -9.21875 C 3.648438 -9.21875 7.941406 -13.285156 14.890625 -21.421875 C 15.796875 -22.523438 16.6875 -23.078125 17.5625 -23.078125 C 18.832031 -23.078125 19.46875 -22.601562 19.46875 -21.65625 C 19.46875 -21.300781 19.078125 -19.945312 18.296875 -17.59375 C 17.222656 -14.382812 16.6875 -12.535156 16.6875 -12.046875 C 16.6875 -11.304688 16.929688 -10.9375 17.421875 -10.9375 C 18.648438 -10.9375 22.25 -13.128906 28.21875 -17.515625 C 28.550781 -17.804688 28.84375 -17.953125 29.09375 -17.953125 C 29.65625 -17.953125 29.9375 -17.484375 29.9375 -16.546875 C 29.9375 -16.296875 29.859375 -16.09375 29.703125 -15.9375 C 26.535156 -13.226562 23.84375 -11.164062 21.625 -9.75 C 19.601562 -8.445312 17.8125 -7.796875 16.25 -7.796875 L 15.765625 -7.796875 C 13.460938 -8.296875 12.3125 -10.101562 12.3125 -13.21875 C 9.84375 -11.039062 7.796875 -9.285156 6.171875 -7.953125 C 4.546875 -6.617188 2.769531 -5.953125 0.84375 -5.953125 Z M 0.84375 -5.953125 "/></g></g></g><g fill="#3e3e3b" fill-opacity="1"><g transform="translate(649.408004, 151.748749)"><g><path d="M 29.703125 -18.03125 C 29.878906 -18.070312 30.078125 -18.066406 30.296875 -18.015625 C 30.523438 -17.972656 30.695312 -17.875 30.8125 -17.71875 C 30.9375 -17.476562 30.925781 -17.234375 30.78125 -16.984375 C 30.632812 -16.734375 30.421875 -16.539062 30.140625 -16.40625 C 28.117188 -15.425781 26.085938 -14.40625 24.046875 -13.34375 C 21.648438 -12.113281 19.238281 -10.882812 16.8125 -9.65625 C 16.457031 -9.519531 16.109375 -9.347656 15.765625 -9.140625 C 15.234375 -8.847656 14.695312 -8.582031 14.15625 -8.34375 C 12.925781 -7.738281 12.109375 -6.796875 11.703125 -5.515625 C 10.628906 -2.460938 9.5 0.5625 8.3125 3.5625 C 6.78125 7.570312 4.875 11.394531 2.59375 15.03125 C 1.3125 17.113281 -0.234375 18.960938 -2.046875 20.578125 C -4.222656 22.617188 -6.710938 23.910156 -9.515625 24.453125 C -14.160156 25.390625 -18.632812 25.085938 -22.9375 23.546875 C -24.707031 22.910156 -26.234375 21.898438 -27.515625 20.515625 C -29.234375 18.648438 -29.3125 16.65625 -27.75 14.53125 C -27.050781 13.632812 -26.273438 12.789062 -25.421875 12 C -23.515625 10.28125 -21.453125 8.734375 -19.234375 7.359375 C -11.273438 2.273438 -3.101562 -2.40625 5.28125 -6.6875 C 5.320312 -6.6875 5.34375 -6.6875 5.34375 -6.6875 C 6.21875 -7.132812 7.082031 -7.609375 7.9375 -8.109375 C 8.070312 -8.210938 8.257812 -8.453125 8.5 -8.828125 C 8.75 -9.203125 8.9375 -9.570312 9.0625 -9.9375 C 9.1875 -10.3125 9.148438 -10.582031 8.953125 -10.75 C 8.765625 -10.914062 8.300781 -10.832031 7.5625 -10.5 C 7.269531 -10.382812 7.003906 -10.257812 6.765625 -10.125 C 6.109375 -9.8125 5.457031 -9.53125 4.8125 -9.28125 C 0.976562 -8.363281 -0.9375 -9.84375 -0.9375 -13.71875 C -0.851562 -16.050781 -0.15625 -18.148438 1.15625 -20.015625 C 2.46875 -21.890625 4.144531 -23.359375 6.1875 -24.421875 C 8.226562 -25.492188 10.4375 -25.90625 12.8125 -25.65625 C 13.0625 -25.65625 13.304688 -25.625 13.546875 -25.5625 C 14.203125 -25.46875 14.859375 -25.421875 15.515625 -25.421875 C 16.179688 -25.421875 16.863281 -25.566406 17.5625 -25.859375 C 18.300781 -26.148438 18.851562 -26.066406 19.21875 -25.609375 C 19.59375 -25.148438 19.65625 -24.550781 19.40625 -23.8125 C 18.75 -22.414062 18.109375 -21.003906 17.484375 -19.578125 C 17.035156 -18.703125 16.609375 -17.789062 16.203125 -16.84375 C 15.753906 -15.863281 15.316406 -14.859375 14.890625 -13.828125 C 14.285156 -12.472656 14.195312 -11.765625 14.625 -11.703125 C 15.050781 -11.640625 15.78125 -11.875 16.8125 -12.40625 C 16.945312 -12.457031 17.09375 -12.503906 17.25 -12.546875 C 19.132812 -13.441406 21.03125 -14.328125 22.9375 -15.203125 C 24.28125 -15.804688 25.613281 -16.421875 26.9375 -17.046875 C 27.832031 -17.453125 28.753906 -17.78125 29.703125 -18.03125 Z M 5.78125 0.03125 C 6.476562 -1.9375 6.773438 -3.226562 6.671875 -3.84375 C 6.578125 -4.46875 6.144531 -4.632812 5.375 -4.34375 C 4.613281 -4.050781 3.617188 -3.507812 2.390625 -2.71875 C 1.597656 -2.226562 0.734375 -1.738281 -0.203125 -1.25 C -5.867188 1.820312 -11.394531 5.109375 -16.78125 8.609375 C -19.15625 9.992188 -21.273438 11.675781 -23.140625 13.65625 C -25.109375 15.757812 -25.039062 17.628906 -22.9375 19.265625 C -21.707031 20.253906 -20.332031 20.941406 -18.8125 21.328125 C -17.300781 21.722656 -15.640625 21.921875 -13.828125 21.921875 C -11.691406 22.078125 -9.710938 21.6875 -7.890625 20.75 C -6.078125 19.8125 -4.398438 18.398438 -2.859375 16.515625 C -1.941406 15.273438 -1.054688 13.992188 -0.203125 12.671875 C 2.265625 8.640625 4.257812 4.425781 5.78125 0.03125 Z M 3.5625 -11.875 C 4.144531 -11.625 4.988281 -11.832031 6.09375 -12.5 C 7.207031 -13.175781 8.347656 -14.101562 9.515625 -15.28125 C 10.679688 -16.457031 11.601562 -17.660156 12.28125 -18.890625 C 12.96875 -20.128906 13.144531 -21.175781 12.8125 -22.03125 C 12.71875 -22.269531 12.570312 -22.492188 12.375 -22.703125 C 12.019531 -23.128906 11.625 -23.328125 11.1875 -23.296875 C 10.75 -23.273438 10.28125 -23.203125 9.78125 -23.078125 C 8.144531 -22.421875 6.695312 -21.300781 5.4375 -19.71875 C 4.1875 -18.144531 3.351562 -16.582031 2.9375 -15.03125 C 2.53125 -13.488281 2.738281 -12.4375 3.5625 -11.875 Z M 3.5625 -11.875 "/></g></g></g><g fill="#3e3e3b" fill-opacity="1"><g transform="translate(678.126722, 151.748749)"><g><path d="M 27.3125 -15.671875 C 26.90625 -15.316406 26.476562 -14.992188 26.03125 -14.703125 C 24.59375 -13.796875 23.296875 -13.082031 22.140625 -12.5625 C 20.984375 -12.050781 19.625 -11.53125 18.0625 -11 C 15.726562 -10.300781 14.226562 -10.457031 13.5625 -11.46875 C 12.90625 -12.476562 12.800781 -13.878906 13.25 -15.671875 C 13.875 -18.222656 14.238281 -20.09375 14.34375 -21.28125 C 14.445312 -22.476562 14.054688 -22.890625 13.171875 -22.515625 C 12.285156 -22.140625 10.675781 -20.910156 8.34375 -18.828125 C 5.09375 -16.023438 2.3125 -12.820312 0 -9.21875 C -0.289062 -8.71875 -0.648438 -8.3125 -1.078125 -8 C -1.503906 -7.6875 -2.03125 -7.53125 -2.65625 -7.53125 C -3.257812 -7.53125 -3.695312 -7.6875 -3.96875 -8 C -4.238281 -8.3125 -4.25 -8.738281 -4 -9.28125 C -2.675781 -12.195312 -1.320312 -15.085938 0.0625 -17.953125 C 2.4375 -22.929688 4.78125 -27.890625 7.09375 -32.828125 C 8.820312 -36.523438 10.523438 -40.222656 12.203125 -43.921875 C 13.234375 -46.097656 14.242188 -48.273438 15.234375 -50.453125 C 15.328125 -50.628906 15.425781 -50.816406 15.53125 -51.015625 C 15.625 -51.265625 15.734375 -51.507812 15.859375 -51.75 C 15.984375 -52 16.125 -52.269531 16.28125 -52.5625 C 16.414062 -52.8125 16.664062 -53.015625 17.03125 -53.171875 C 17.40625 -53.328125 17.773438 -53.425781 18.140625 -53.46875 C 18.515625 -53.519531 18.800781 -53.5 19 -53.40625 C 19.289062 -53.207031 19.453125 -52.992188 19.484375 -52.765625 C 19.523438 -52.546875 19.488281 -52.3125 19.375 -52.0625 C 19.320312 -52.019531 19.296875 -51.941406 19.296875 -51.828125 C 18.847656 -50.503906 18.378906 -49.222656 17.890625 -47.984375 C 15.046875 -41.128906 11.941406 -34.375 8.578125 -27.71875 C 8.328125 -27.257812 8.035156 -26.71875 7.703125 -26.09375 C 7.210938 -25.195312 6.753906 -24.316406 6.328125 -23.453125 C 5.898438 -22.585938 5.757812 -22.007812 5.90625 -21.71875 C 6.050781 -21.425781 6.71875 -21.648438 7.90625 -22.390625 C 8.257812 -22.640625 8.582031 -22.890625 8.875 -23.140625 C 9.820312 -23.765625 10.753906 -24.359375 11.671875 -24.921875 C 12.472656 -25.460938 13.367188 -25.753906 14.359375 -25.796875 C 16.710938 -25.953125 18.035156 -24.882812 18.328125 -22.59375 C 18.441406 -21.675781 18.40625 -20.769531 18.21875 -19.875 C 18.039062 -18.976562 17.832031 -18.09375 17.59375 -17.21875 C 17.539062 -16.96875 17.492188 -16.722656 17.453125 -16.484375 C 17.046875 -14.953125 17.148438 -14.070312 17.765625 -13.84375 C 18.390625 -13.625 19.253906 -13.75 20.359375 -14.21875 C 21.472656 -14.695312 22.601562 -15.269531 23.75 -15.9375 C 24.53125 -16.34375 25.21875 -16.691406 25.8125 -16.984375 C 26.40625 -17.273438 26.847656 -17.398438 27.140625 -17.359375 C 27.679688 -17.265625 27.925781 -17.039062 27.875 -16.6875 C 27.832031 -16.34375 27.644531 -16.003906 27.3125 -15.671875 Z M 27.3125 -15.671875 "/></g></g></g></svg>